<mxfile host="www.draw.io" modified="2019-12-27T16:57:16.136Z" agent="Mozilla/5.0 (Macintosh; Intel Mac OS X 10_15_1) AppleWebKit/537.36 (KHTML, like Gecko) Chrome/78.0.3904.108 Safari/537.36" etag="tfCDD1fsAjdxfmhBNfFl" version="12.4.3" type="github" pages="16">
  <diagram id="g-8aUn-yCLQlOlD1rf04" name="01 - mockup">
    <mxGraphModel dx="747" dy="359" grid="1" gridSize="10" guides="1" tooltips="1" connect="1" arrows="1" fold="1" page="1" pageScale="1" pageWidth="1920" pageHeight="1200" math="0" shadow="0">
      <root>
        <mxCell id="0"/>
        <mxCell id="1" parent="0"/>
        <mxCell id="7k7S9Wrkfu1JMB76o6uD-1" value="" style="strokeWidth=1;shadow=0;dashed=0;align=center;html=1;shape=mxgraph.mockup.containers.browserWindow;rSize=0;strokeColor=#666666;strokeColor2=#008cff;strokeColor3=#c4c4c4;mainText=,;recursiveResize=0;" vertex="1" parent="1">
          <mxGeometry x="320" y="140" width="630" height="430" as="geometry"/>
        </mxCell>
        <mxCell id="7k7S9Wrkfu1JMB76o6uD-2" value="Page 1" style="strokeWidth=1;shadow=0;dashed=0;align=center;html=1;shape=mxgraph.mockup.containers.anchor;fontSize=17;fontColor=#666666;align=left;" vertex="1" parent="7k7S9Wrkfu1JMB76o6uD-1">
          <mxGeometry x="60" y="12" width="110" height="26" as="geometry"/>
        </mxCell>
        <mxCell id="7k7S9Wrkfu1JMB76o6uD-3" value="https://www.draw.io" style="strokeWidth=1;shadow=0;dashed=0;align=center;html=1;shape=mxgraph.mockup.containers.anchor;rSize=0;fontSize=17;fontColor=#666666;align=left;" vertex="1" parent="7k7S9Wrkfu1JMB76o6uD-1">
          <mxGeometry x="130" y="60" width="250" height="26" as="geometry"/>
        </mxCell>
        <mxCell id="7k7S9Wrkfu1JMB76o6uD-4" value="Tech News" style="text;html=1;strokeColor=none;fillColor=none;align=left;verticalAlign=middle;whiteSpace=wrap;rounded=0;fontStyle=1;fontSize=17;" vertex="1" parent="7k7S9Wrkfu1JMB76o6uD-1">
          <mxGeometry x="100" y="130" width="230" height="20" as="geometry"/>
        </mxCell>
        <mxCell id="7k7S9Wrkfu1JMB76o6uD-5" value="Developments in the Atlantic" style="text;html=1;strokeColor=none;fillColor=none;align=left;verticalAlign=middle;whiteSpace=wrap;rounded=0;fontSize=13;fontColor=#3399FF;" vertex="1" parent="7k7S9Wrkfu1JMB76o6uD-1">
          <mxGeometry x="100" y="170" width="200" height="20" as="geometry"/>
        </mxCell>
        <mxCell id="7k7S9Wrkfu1JMB76o6uD-6" value="Latest Global Economic Report" style="text;html=1;strokeColor=none;fillColor=none;align=left;verticalAlign=middle;whiteSpace=wrap;rounded=0;fontSize=13;fontColor=#3399FF;" vertex="1" parent="7k7S9Wrkfu1JMB76o6uD-1">
          <mxGeometry x="100" y="190" width="200" height="20" as="geometry"/>
        </mxCell>
        <mxCell id="7k7S9Wrkfu1JMB76o6uD-7" value="Something something music star" style="text;html=1;strokeColor=none;fillColor=none;align=left;verticalAlign=middle;whiteSpace=wrap;rounded=0;fontSize=13;fontColor=#3399FF;" vertex="1" parent="7k7S9Wrkfu1JMB76o6uD-1">
          <mxGeometry x="100" y="210" width="200" height="20" as="geometry"/>
        </mxCell>
        <mxCell id="7k7S9Wrkfu1JMB76o6uD-8" value="Twitter got hacked" style="text;html=1;strokeColor=none;fillColor=none;align=left;verticalAlign=middle;whiteSpace=wrap;rounded=0;fontSize=13;fontColor=#3399FF;" vertex="1" parent="7k7S9Wrkfu1JMB76o6uD-1">
          <mxGeometry x="100" y="230" width="200" height="20" as="geometry"/>
        </mxCell>
        <mxCell id="7k7S9Wrkfu1JMB76o6uD-9" value="Twitter didn&#39;t get hacked" style="text;html=1;strokeColor=none;fillColor=none;align=left;verticalAlign=middle;whiteSpace=wrap;rounded=0;fontSize=13;fontColor=#3399FF;" vertex="1" parent="7k7S9Wrkfu1JMB76o6uD-1">
          <mxGeometry x="100" y="250" width="200" height="20" as="geometry"/>
        </mxCell>
        <mxCell id="7k7S9Wrkfu1JMB76o6uD-10" value="Latest predictions for football" style="text;html=1;strokeColor=none;fillColor=none;align=left;verticalAlign=middle;whiteSpace=wrap;rounded=0;fontSize=13;fontColor=#3399FF;" vertex="1" parent="7k7S9Wrkfu1JMB76o6uD-1">
          <mxGeometry x="100" y="270" width="200" height="20" as="geometry"/>
        </mxCell>
        <mxCell id="ZcnqVWj34kaJ8Non3Mdq-1" value="World News" style="text;html=1;strokeColor=none;fillColor=none;align=left;verticalAlign=middle;whiteSpace=wrap;rounded=0;fontStyle=1;fontSize=17;" vertex="1" parent="7k7S9Wrkfu1JMB76o6uD-1">
          <mxGeometry x="380" y="130" width="230" height="20" as="geometry"/>
        </mxCell>
        <mxCell id="ZcnqVWj34kaJ8Non3Mdq-2" value="Developments in the Atlantic" style="text;html=1;strokeColor=none;fillColor=none;align=left;verticalAlign=middle;whiteSpace=wrap;rounded=0;fontSize=13;fontColor=#3399FF;" vertex="1" parent="7k7S9Wrkfu1JMB76o6uD-1">
          <mxGeometry x="380" y="170" width="200" height="20" as="geometry"/>
        </mxCell>
        <mxCell id="ZcnqVWj34kaJ8Non3Mdq-3" value="Latest Global Economic Report" style="text;html=1;strokeColor=none;fillColor=none;align=left;verticalAlign=middle;whiteSpace=wrap;rounded=0;fontSize=13;fontColor=#3399FF;" vertex="1" parent="7k7S9Wrkfu1JMB76o6uD-1">
          <mxGeometry x="380" y="190" width="200" height="20" as="geometry"/>
        </mxCell>
        <mxCell id="ZcnqVWj34kaJ8Non3Mdq-4" value="Something something music star" style="text;html=1;strokeColor=none;fillColor=none;align=left;verticalAlign=middle;whiteSpace=wrap;rounded=0;fontSize=13;fontColor=#3399FF;" vertex="1" parent="7k7S9Wrkfu1JMB76o6uD-1">
          <mxGeometry x="380" y="210" width="200" height="20" as="geometry"/>
        </mxCell>
        <mxCell id="ZcnqVWj34kaJ8Non3Mdq-5" value="Twitter got hacked" style="text;html=1;strokeColor=none;fillColor=none;align=left;verticalAlign=middle;whiteSpace=wrap;rounded=0;fontSize=13;fontColor=#3399FF;" vertex="1" parent="7k7S9Wrkfu1JMB76o6uD-1">
          <mxGeometry x="380" y="230" width="200" height="20" as="geometry"/>
        </mxCell>
        <mxCell id="ZcnqVWj34kaJ8Non3Mdq-6" value="Twitter didn&#39;t get hacked" style="text;html=1;strokeColor=none;fillColor=none;align=left;verticalAlign=middle;whiteSpace=wrap;rounded=0;fontSize=13;fontColor=#3399FF;" vertex="1" parent="7k7S9Wrkfu1JMB76o6uD-1">
          <mxGeometry x="380" y="250" width="200" height="20" as="geometry"/>
        </mxCell>
        <mxCell id="ZcnqVWj34kaJ8Non3Mdq-7" value="Latest predictions for football" style="text;html=1;strokeColor=none;fillColor=none;align=left;verticalAlign=middle;whiteSpace=wrap;rounded=0;fontSize=13;fontColor=#3399FF;" vertex="1" parent="7k7S9Wrkfu1JMB76o6uD-1">
          <mxGeometry x="380" y="270" width="200" height="20" as="geometry"/>
        </mxCell>
        <mxCell id="plgwIDLF2LK-LxARxo-t-1" value="1" style="rounded=0;whiteSpace=wrap;html=1;fontSize=16;align=center;fillColor=#dae8fc;strokeColor=#6c8ebf;" vertex="1" parent="7k7S9Wrkfu1JMB76o6uD-1">
          <mxGeometry x="140" y="300" width="30" height="30" as="geometry"/>
        </mxCell>
        <mxCell id="plgwIDLF2LK-LxARxo-t-2" value="2" style="rounded=0;whiteSpace=wrap;html=1;fontSize=16;fontColor=#000000;align=center;" vertex="1" parent="7k7S9Wrkfu1JMB76o6uD-1">
          <mxGeometry x="170" y="300" width="30" height="30" as="geometry"/>
        </mxCell>
        <mxCell id="plgwIDLF2LK-LxARxo-t-3" value="3" style="rounded=0;whiteSpace=wrap;html=1;fontSize=16;fontColor=#000000;align=center;" vertex="1" parent="7k7S9Wrkfu1JMB76o6uD-1">
          <mxGeometry x="200" y="300" width="30" height="30" as="geometry"/>
        </mxCell>
        <mxCell id="plgwIDLF2LK-LxARxo-t-4" value="1" style="rounded=0;whiteSpace=wrap;html=1;fontSize=16;align=center;fillColor=#dae8fc;strokeColor=#6c8ebf;" vertex="1" parent="7k7S9Wrkfu1JMB76o6uD-1">
          <mxGeometry x="430" y="300" width="30" height="30" as="geometry"/>
        </mxCell>
        <mxCell id="plgwIDLF2LK-LxARxo-t-5" value="2" style="rounded=0;whiteSpace=wrap;html=1;fontSize=16;fontColor=#000000;align=center;" vertex="1" parent="7k7S9Wrkfu1JMB76o6uD-1">
          <mxGeometry x="460" y="300" width="30" height="30" as="geometry"/>
        </mxCell>
        <mxCell id="plgwIDLF2LK-LxARxo-t-6" value="3" style="rounded=0;whiteSpace=wrap;html=1;fontSize=16;fontColor=#000000;align=center;" vertex="1" parent="7k7S9Wrkfu1JMB76o6uD-1">
          <mxGeometry x="490" y="300" width="30" height="30" as="geometry"/>
        </mxCell>
        <mxCell id="dqYbKzwm_03rguB1i4G_-1" value="49F&lt;br style=&quot;font-size: 12px;&quot;&gt;Mon" style="rounded=0;whiteSpace=wrap;html=1;fontSize=12;fontColor=#000000;align=center;" vertex="1" parent="7k7S9Wrkfu1JMB76o6uD-1">
          <mxGeometry y="170" width="40" height="40" as="geometry"/>
        </mxCell>
        <mxCell id="dqYbKzwm_03rguB1i4G_-2" value="49F&lt;br style=&quot;font-size: 12px;&quot;&gt;Tue" style="rounded=0;whiteSpace=wrap;html=1;fontSize=12;fontColor=#000000;align=center;" vertex="1" parent="7k7S9Wrkfu1JMB76o6uD-1">
          <mxGeometry y="210" width="40" height="40" as="geometry"/>
        </mxCell>
        <mxCell id="dqYbKzwm_03rguB1i4G_-3" value="49F&lt;br style=&quot;font-size: 12px;&quot;&gt;Wed" style="rounded=0;whiteSpace=wrap;html=1;fontSize=12;fontColor=#000000;align=center;" vertex="1" parent="7k7S9Wrkfu1JMB76o6uD-1">
          <mxGeometry y="250" width="40" height="40" as="geometry"/>
        </mxCell>
        <mxCell id="dqYbKzwm_03rguB1i4G_-4" value="49F&lt;br style=&quot;font-size: 12px;&quot;&gt;Thur" style="rounded=0;whiteSpace=wrap;html=1;fontSize=12;fontColor=#000000;align=center;" vertex="1" parent="7k7S9Wrkfu1JMB76o6uD-1">
          <mxGeometry y="290" width="40" height="40" as="geometry"/>
        </mxCell>
        <mxCell id="dqYbKzwm_03rguB1i4G_-5" value="49F&lt;br style=&quot;font-size: 12px;&quot;&gt;Fri" style="rounded=0;whiteSpace=wrap;html=1;fontSize=12;fontColor=#000000;align=center;" vertex="1" parent="7k7S9Wrkfu1JMB76o6uD-1">
          <mxGeometry y="330" width="40" height="40" as="geometry"/>
        </mxCell>
      </root>
    </mxGraphModel>
  </diagram>
  <diagram name="02 - souces" id="DbKbJx4aomJnNt5FVq7H">
    <mxGraphModel dx="995" dy="478" grid="1" gridSize="10" guides="1" tooltips="1" connect="1" arrows="1" fold="1" page="1" pageScale="1" pageWidth="1920" pageHeight="1200" math="0" shadow="0">
      <root>
        <mxCell id="F1kFH90dVr8UZjHQC_4X-0"/>
        <mxCell id="F1kFH90dVr8UZjHQC_4X-1" parent="F1kFH90dVr8UZjHQC_4X-0"/>
        <mxCell id="F1kFH90dVr8UZjHQC_4X-2" value="" style="strokeWidth=1;shadow=0;dashed=0;align=center;html=1;shape=mxgraph.mockup.containers.browserWindow;rSize=0;strokeColor=#666666;strokeColor2=#008cff;strokeColor3=#c4c4c4;mainText=,;recursiveResize=0;" vertex="1" parent="F1kFH90dVr8UZjHQC_4X-1">
          <mxGeometry x="320" y="140" width="620" height="490" as="geometry"/>
        </mxCell>
        <mxCell id="F1kFH90dVr8UZjHQC_4X-3" value="Page 1" style="strokeWidth=1;shadow=0;dashed=0;align=center;html=1;shape=mxgraph.mockup.containers.anchor;fontSize=17;fontColor=#666666;align=left;" vertex="1" parent="F1kFH90dVr8UZjHQC_4X-2">
          <mxGeometry x="60" y="12" width="110" height="26" as="geometry"/>
        </mxCell>
        <mxCell id="F1kFH90dVr8UZjHQC_4X-4" value="https://www.draw.io" style="strokeWidth=1;shadow=0;dashed=0;align=center;html=1;shape=mxgraph.mockup.containers.anchor;rSize=0;fontSize=17;fontColor=#666666;align=left;" vertex="1" parent="F1kFH90dVr8UZjHQC_4X-2">
          <mxGeometry x="130" y="60" width="250" height="26" as="geometry"/>
        </mxCell>
        <mxCell id="F1kFH90dVr8UZjHQC_4X-19" value="Successfully fetched 10 articles from News API!" style="rounded=0;whiteSpace=wrap;html=1;fontSize=13;align=center;fillColor=#d5e8d4;strokeColor=#82b366;" vertex="1" parent="F1kFH90dVr8UZjHQC_4X-2">
          <mxGeometry x="410" y="380" width="200" height="50" as="geometry"/>
        </mxCell>
        <mxCell id="F1kFH90dVr8UZjHQC_4X-20" value="Failed to fetch articles from Hacker News" style="rounded=0;whiteSpace=wrap;html=1;fontSize=13;align=center;fillColor=#f8cecc;strokeColor=#b85450;" vertex="1" parent="F1kFH90dVr8UZjHQC_4X-2">
          <mxGeometry x="410" y="434.67" width="200" height="50" as="geometry"/>
        </mxCell>
        <mxCell id="F1kFH90dVr8UZjHQC_4X-22" value="" style="verticalLabelPosition=bottom;verticalAlign=top;html=1;shadow=0;dashed=0;strokeWidth=1;shape=mxgraph.ios.iDeleteApp;fillColor=#cccccc;fillColor2=#000000;strokeColor=#ffffff;fontSize=16;fontColor=#000000;align=center;" vertex="1" parent="F1kFH90dVr8UZjHQC_4X-2">
          <mxGeometry x="590" y="440" width="15" height="15" as="geometry"/>
        </mxCell>
        <mxCell id="whZvrPYI4WGM9WZDTElz-20" value="" style="verticalLabelPosition=bottom;verticalAlign=top;html=1;shadow=0;dashed=0;strokeWidth=1;shape=mxgraph.ios.iDeleteApp;fillColor=#cccccc;fillColor2=#000000;strokeColor=#ffffff;fontSize=16;fontColor=#000000;align=center;" vertex="1" parent="F1kFH90dVr8UZjHQC_4X-2">
          <mxGeometry x="590" y="380" width="15" height="15" as="geometry"/>
        </mxCell>
        <mxCell id="whZvrPYI4WGM9WZDTElz-21" value="" style="shape=curlyBracket;whiteSpace=wrap;html=1;rounded=1;fontSize=13;fontColor=#000000;align=center;rotation=90;" vertex="1" parent="F1kFH90dVr8UZjHQC_4X-2">
          <mxGeometry x="170" y="60" width="40" height="180" as="geometry"/>
        </mxCell>
        <mxCell id="whZvrPYI4WGM9WZDTElz-0" value="Tech News" style="text;html=1;strokeColor=none;fillColor=none;align=left;verticalAlign=middle;whiteSpace=wrap;rounded=0;fontStyle=1;fontSize=17;" vertex="1" parent="F1kFH90dVr8UZjHQC_4X-2">
          <mxGeometry x="100" y="130" width="230" height="20" as="geometry"/>
        </mxCell>
        <mxCell id="whZvrPYI4WGM9WZDTElz-14" value="1" style="rounded=0;whiteSpace=wrap;html=1;fontSize=16;align=center;fillColor=#dae8fc;strokeColor=#6c8ebf;" vertex="1" parent="F1kFH90dVr8UZjHQC_4X-2">
          <mxGeometry x="140" y="300" width="30" height="30" as="geometry"/>
        </mxCell>
        <mxCell id="whZvrPYI4WGM9WZDTElz-15" value="2" style="rounded=0;whiteSpace=wrap;html=1;fontSize=16;fontColor=#000000;align=center;" vertex="1" parent="F1kFH90dVr8UZjHQC_4X-2">
          <mxGeometry x="170" y="300" width="30" height="30" as="geometry"/>
        </mxCell>
        <mxCell id="whZvrPYI4WGM9WZDTElz-16" value="3" style="rounded=0;whiteSpace=wrap;html=1;fontSize=16;fontColor=#000000;align=center;" vertex="1" parent="F1kFH90dVr8UZjHQC_4X-2">
          <mxGeometry x="200" y="300" width="30" height="30" as="geometry"/>
        </mxCell>
        <mxCell id="whZvrPYI4WGM9WZDTElz-1" value="Developments in the Atlantic" style="text;html=1;strokeColor=none;fillColor=none;align=left;verticalAlign=middle;whiteSpace=wrap;rounded=0;fontSize=13;fontColor=#3399FF;" vertex="1" parent="F1kFH90dVr8UZjHQC_4X-2">
          <mxGeometry x="100" y="170" width="420" height="20" as="geometry"/>
        </mxCell>
        <mxCell id="whZvrPYI4WGM9WZDTElz-2" value="Latest Global Economic Report" style="text;html=1;strokeColor=none;fillColor=none;align=left;verticalAlign=middle;whiteSpace=wrap;rounded=0;fontSize=13;fontColor=#3399FF;" vertex="1" parent="F1kFH90dVr8UZjHQC_4X-2">
          <mxGeometry x="100" y="190" width="420" height="20" as="geometry"/>
        </mxCell>
        <mxCell id="whZvrPYI4WGM9WZDTElz-3" value="Something something music star" style="text;html=1;strokeColor=none;fillColor=none;align=left;verticalAlign=middle;whiteSpace=wrap;rounded=0;fontSize=13;fontColor=#3399FF;" vertex="1" parent="F1kFH90dVr8UZjHQC_4X-2">
          <mxGeometry x="100" y="210" width="420" height="20" as="geometry"/>
        </mxCell>
        <mxCell id="whZvrPYI4WGM9WZDTElz-4" value="Twitter got hacked" style="text;html=1;strokeColor=none;fillColor=none;align=left;verticalAlign=middle;whiteSpace=wrap;rounded=0;fontSize=13;fontColor=#3399FF;" vertex="1" parent="F1kFH90dVr8UZjHQC_4X-2">
          <mxGeometry x="100" y="230" width="420" height="20" as="geometry"/>
        </mxCell>
        <mxCell id="whZvrPYI4WGM9WZDTElz-5" value="Twitter didn&#39;t get hacked" style="text;html=1;strokeColor=none;fillColor=none;align=left;verticalAlign=middle;whiteSpace=wrap;rounded=0;fontSize=13;fontColor=#3399FF;" vertex="1" parent="F1kFH90dVr8UZjHQC_4X-2">
          <mxGeometry x="100" y="250" width="420" height="20" as="geometry"/>
        </mxCell>
        <mxCell id="whZvrPYI4WGM9WZDTElz-6" value="Latest predictions for football" style="text;html=1;strokeColor=none;fillColor=none;align=left;verticalAlign=middle;whiteSpace=wrap;rounded=0;fontSize=13;fontColor=#3399FF;" vertex="1" parent="F1kFH90dVr8UZjHQC_4X-2">
          <mxGeometry x="100" y="270" width="420" height="20" as="geometry"/>
        </mxCell>
        <mxCell id="whZvrPYI4WGM9WZDTElz-22" style="edgeStyle=orthogonalEdgeStyle;rounded=0;orthogonalLoop=1;jettySize=auto;html=1;exitX=1;exitY=0.5;exitDx=0;exitDy=0;entryX=0.1;entryY=0.5;entryDx=0;entryDy=0;entryPerimeter=0;fontSize=13;fontColor=#000000;" edge="1" parent="F1kFH90dVr8UZjHQC_4X-1" source="F1kFH90dVr8UZjHQC_4X-14" target="whZvrPYI4WGM9WZDTElz-21">
          <mxGeometry relative="1" as="geometry"/>
        </mxCell>
        <mxCell id="F1kFH90dVr8UZjHQC_4X-14" value="Articles sourced from news.ycombinator.com" style="rounded=0;whiteSpace=wrap;html=1;fontSize=16;align=center;fillColor=#f5f5f5;strokeColor=#666666;fontColor=#333333;fontStyle=2" vertex="1" parent="F1kFH90dVr8UZjHQC_4X-1">
          <mxGeometry x="410" y="50" width="190" height="80" as="geometry"/>
        </mxCell>
        <mxCell id="whZvrPYI4WGM9WZDTElz-24" style="edgeStyle=orthogonalEdgeStyle;rounded=0;orthogonalLoop=1;jettySize=auto;html=1;exitX=0;exitY=0.5;exitDx=0;exitDy=0;entryX=0.1;entryY=0.5;entryDx=0;entryDy=0;entryPerimeter=0;fontSize=13;fontColor=#000000;" edge="1" parent="F1kFH90dVr8UZjHQC_4X-1" source="F1kFH90dVr8UZjHQC_4X-16" target="whZvrPYI4WGM9WZDTElz-23">
          <mxGeometry relative="1" as="geometry"/>
        </mxCell>
        <mxCell id="F1kFH90dVr8UZjHQC_4X-16" value="Articles sourced from newsapi.org" style="rounded=0;whiteSpace=wrap;html=1;fontSize=16;align=center;fillColor=#f5f5f5;strokeColor=#666666;fontColor=#333333;fontStyle=2" vertex="1" parent="F1kFH90dVr8UZjHQC_4X-1">
          <mxGeometry x="970" y="330" width="190" height="80" as="geometry"/>
        </mxCell>
        <mxCell id="F1kFH90dVr8UZjHQC_4X-24" style="edgeStyle=orthogonalEdgeStyle;rounded=0;orthogonalLoop=1;jettySize=auto;html=1;exitX=0;exitY=0.5;exitDx=0;exitDy=0;fontSize=16;fontColor=#000000;" edge="1" parent="F1kFH90dVr8UZjHQC_4X-1" source="F1kFH90dVr8UZjHQC_4X-23" target="F1kFH90dVr8UZjHQC_4X-19">
          <mxGeometry relative="1" as="geometry"/>
        </mxCell>
        <mxCell id="F1kFH90dVr8UZjHQC_4X-25" style="edgeStyle=orthogonalEdgeStyle;rounded=0;orthogonalLoop=1;jettySize=auto;html=1;exitX=0;exitY=0.5;exitDx=0;exitDy=0;entryX=1;entryY=0.5;entryDx=0;entryDy=0;fontSize=16;fontColor=#000000;" edge="1" parent="F1kFH90dVr8UZjHQC_4X-1" source="F1kFH90dVr8UZjHQC_4X-23" target="F1kFH90dVr8UZjHQC_4X-20">
          <mxGeometry relative="1" as="geometry"/>
        </mxCell>
        <mxCell id="F1kFH90dVr8UZjHQC_4X-23" value="Notifications that auto-dismiss after 5 seconds" style="rounded=0;whiteSpace=wrap;html=1;fontSize=16;align=center;fillColor=#f5f5f5;strokeColor=#666666;fontColor=#333333;fontStyle=2" vertex="1" parent="F1kFH90dVr8UZjHQC_4X-1">
          <mxGeometry x="990" y="530" width="190" height="80" as="geometry"/>
        </mxCell>
        <mxCell id="whZvrPYI4WGM9WZDTElz-7" value="World News" style="text;html=1;strokeColor=none;fillColor=none;align=left;verticalAlign=middle;whiteSpace=wrap;rounded=0;fontStyle=1;fontSize=17;" vertex="1" parent="F1kFH90dVr8UZjHQC_4X-1">
          <mxGeometry x="670" y="270" width="230" height="20" as="geometry"/>
        </mxCell>
        <mxCell id="whZvrPYI4WGM9WZDTElz-8" value="Developments in the Atlantic" style="text;html=1;strokeColor=none;fillColor=none;align=left;verticalAlign=middle;whiteSpace=wrap;rounded=0;fontSize=13;fontColor=#3399FF;" vertex="1" parent="F1kFH90dVr8UZjHQC_4X-1">
          <mxGeometry x="670" y="310" width="200" height="20" as="geometry"/>
        </mxCell>
        <mxCell id="whZvrPYI4WGM9WZDTElz-9" value="Latest Global Economic Report" style="text;html=1;strokeColor=none;fillColor=none;align=left;verticalAlign=middle;whiteSpace=wrap;rounded=0;fontSize=13;fontColor=#3399FF;" vertex="1" parent="F1kFH90dVr8UZjHQC_4X-1">
          <mxGeometry x="670" y="330" width="200" height="20" as="geometry"/>
        </mxCell>
        <mxCell id="whZvrPYI4WGM9WZDTElz-10" value="Something something music star" style="text;html=1;strokeColor=none;fillColor=none;align=left;verticalAlign=middle;whiteSpace=wrap;rounded=0;fontSize=13;fontColor=#3399FF;" vertex="1" parent="F1kFH90dVr8UZjHQC_4X-1">
          <mxGeometry x="670" y="350" width="200" height="20" as="geometry"/>
        </mxCell>
        <mxCell id="whZvrPYI4WGM9WZDTElz-11" value="Twitter got hacked" style="text;html=1;strokeColor=none;fillColor=none;align=left;verticalAlign=middle;whiteSpace=wrap;rounded=0;fontSize=13;fontColor=#3399FF;" vertex="1" parent="F1kFH90dVr8UZjHQC_4X-1">
          <mxGeometry x="670" y="370" width="200" height="20" as="geometry"/>
        </mxCell>
        <mxCell id="whZvrPYI4WGM9WZDTElz-12" value="Twitter didn&#39;t get hacked" style="text;html=1;strokeColor=none;fillColor=none;align=left;verticalAlign=middle;whiteSpace=wrap;rounded=0;fontSize=13;fontColor=#3399FF;" vertex="1" parent="F1kFH90dVr8UZjHQC_4X-1">
          <mxGeometry x="670" y="390" width="200" height="20" as="geometry"/>
        </mxCell>
        <mxCell id="whZvrPYI4WGM9WZDTElz-13" value="Latest predictions for football" style="text;html=1;strokeColor=none;fillColor=none;align=left;verticalAlign=middle;whiteSpace=wrap;rounded=0;fontSize=13;fontColor=#3399FF;" vertex="1" parent="F1kFH90dVr8UZjHQC_4X-1">
          <mxGeometry x="670" y="410" width="200" height="20" as="geometry"/>
        </mxCell>
        <mxCell id="whZvrPYI4WGM9WZDTElz-17" value="1" style="rounded=0;whiteSpace=wrap;html=1;fontSize=16;align=center;fillColor=#dae8fc;strokeColor=#6c8ebf;" vertex="1" parent="F1kFH90dVr8UZjHQC_4X-1">
          <mxGeometry x="720" y="440" width="30" height="30" as="geometry"/>
        </mxCell>
        <mxCell id="whZvrPYI4WGM9WZDTElz-18" value="2" style="rounded=0;whiteSpace=wrap;html=1;fontSize=16;fontColor=#000000;align=center;" vertex="1" parent="F1kFH90dVr8UZjHQC_4X-1">
          <mxGeometry x="750" y="440" width="30" height="30" as="geometry"/>
        </mxCell>
        <mxCell id="whZvrPYI4WGM9WZDTElz-19" value="3" style="rounded=0;whiteSpace=wrap;html=1;fontSize=16;fontColor=#000000;align=center;" vertex="1" parent="F1kFH90dVr8UZjHQC_4X-1">
          <mxGeometry x="780" y="440" width="30" height="30" as="geometry"/>
        </mxCell>
        <mxCell id="whZvrPYI4WGM9WZDTElz-23" value="" style="shape=curlyBracket;whiteSpace=wrap;html=1;rounded=1;fontSize=13;fontColor=#000000;align=center;rotation=-180;" vertex="1" parent="F1kFH90dVr8UZjHQC_4X-1">
          <mxGeometry x="870" y="310" width="30" height="120" as="geometry"/>
        </mxCell>
        <mxCell id="vmPE_e1PjuuKMBDEx-57-0" value="49F&lt;br style=&quot;font-size: 12px;&quot;&gt;Mon" style="rounded=0;whiteSpace=wrap;html=1;fontSize=12;fontColor=#000000;align=center;" vertex="1" parent="F1kFH90dVr8UZjHQC_4X-1">
          <mxGeometry x="320" y="310" width="40" height="40" as="geometry"/>
        </mxCell>
        <mxCell id="vmPE_e1PjuuKMBDEx-57-1" value="49F&lt;br style=&quot;font-size: 12px;&quot;&gt;Tue" style="rounded=0;whiteSpace=wrap;html=1;fontSize=12;fontColor=#000000;align=center;" vertex="1" parent="F1kFH90dVr8UZjHQC_4X-1">
          <mxGeometry x="320" y="350" width="40" height="40" as="geometry"/>
        </mxCell>
        <mxCell id="vmPE_e1PjuuKMBDEx-57-2" value="49F&lt;br style=&quot;font-size: 12px;&quot;&gt;Wed" style="rounded=0;whiteSpace=wrap;html=1;fontSize=12;fontColor=#000000;align=center;" vertex="1" parent="F1kFH90dVr8UZjHQC_4X-1">
          <mxGeometry x="320" y="390" width="40" height="40" as="geometry"/>
        </mxCell>
        <mxCell id="vmPE_e1PjuuKMBDEx-57-3" value="49F&lt;br style=&quot;font-size: 12px;&quot;&gt;Thur" style="rounded=0;whiteSpace=wrap;html=1;fontSize=12;fontColor=#000000;align=center;" vertex="1" parent="F1kFH90dVr8UZjHQC_4X-1">
          <mxGeometry x="320" y="430" width="40" height="40" as="geometry"/>
        </mxCell>
        <mxCell id="vmPE_e1PjuuKMBDEx-57-4" value="49F&lt;br style=&quot;font-size: 12px;&quot;&gt;Fri" style="rounded=0;whiteSpace=wrap;html=1;fontSize=12;fontColor=#000000;align=center;" vertex="1" parent="F1kFH90dVr8UZjHQC_4X-1">
          <mxGeometry x="320" y="470" width="40" height="40" as="geometry"/>
        </mxCell>
        <mxCell id="vmPE_e1PjuuKMBDEx-57-5" value="" style="shape=curlyBracket;whiteSpace=wrap;html=1;rounded=1;fontSize=13;fontColor=#000000;align=center;rotation=0;" vertex="1" parent="F1kFH90dVr8UZjHQC_4X-1">
          <mxGeometry x="280" y="310" width="30" height="200" as="geometry"/>
        </mxCell>
        <mxCell id="vmPE_e1PjuuKMBDEx-57-7" style="edgeStyle=orthogonalEdgeStyle;rounded=0;orthogonalLoop=1;jettySize=auto;html=1;exitX=1;exitY=0.5;exitDx=0;exitDy=0;entryX=0.1;entryY=0.5;entryDx=0;entryDy=0;entryPerimeter=0;fontSize=12;fontColor=#000000;" edge="1" parent="F1kFH90dVr8UZjHQC_4X-1" source="vmPE_e1PjuuKMBDEx-57-6" target="vmPE_e1PjuuKMBDEx-57-5">
          <mxGeometry relative="1" as="geometry"/>
        </mxCell>
        <mxCell id="vmPE_e1PjuuKMBDEx-57-6" value="5 day forecast of weather, based on the user&#39;s physical location" style="rounded=0;whiteSpace=wrap;html=1;fontSize=16;align=center;fillColor=#f5f5f5;strokeColor=#666666;fontColor=#333333;fontStyle=2" vertex="1" parent="F1kFH90dVr8UZjHQC_4X-1">
          <mxGeometry x="60" y="370" width="190" height="80" as="geometry"/>
        </mxCell>
      </root>
    </mxGraphModel>
  </diagram>
  <diagram id="b3hTejPsAf5sX11WIBNo" name="03 - modules">
    <mxGraphModel dx="747" dy="359" grid="1" gridSize="10" guides="1" tooltips="1" connect="1" arrows="1" fold="1" page="1" pageScale="1" pageWidth="1920" pageHeight="1200" math="0" shadow="0">
      <root>
        <mxCell id="3SoM6HA_jyPIw3LqU1Tw-0"/>
        <mxCell id="3SoM6HA_jyPIw3LqU1Tw-1" parent="3SoM6HA_jyPIw3LqU1Tw-0"/>
        <mxCell id="3SoM6HA_jyPIw3LqU1Tw-2" value="Tech News" style="rounded=0;whiteSpace=wrap;html=1;fontSize=18;align=center;fillColor=#dae8fc;strokeColor=#6c8ebf;" vertex="1" parent="3SoM6HA_jyPIw3LqU1Tw-1">
          <mxGeometry x="450" y="300" width="170" height="50" as="geometry"/>
        </mxCell>
        <mxCell id="WZpHvqNM9GYi3sBNEaxF-0" value="Notifications" style="rounded=0;whiteSpace=wrap;html=1;fontSize=18;align=center;fillColor=#dae8fc;strokeColor=#6c8ebf;" vertex="1" parent="3SoM6HA_jyPIw3LqU1Tw-1">
          <mxGeometry x="630" y="300" width="170" height="50" as="geometry"/>
        </mxCell>
        <mxCell id="WZpHvqNM9GYi3sBNEaxF-1" value="Weather" style="rounded=0;whiteSpace=wrap;html=1;fontSize=18;align=center;fillColor=#dae8fc;strokeColor=#6c8ebf;" vertex="1" parent="3SoM6HA_jyPIw3LqU1Tw-1">
          <mxGeometry x="630" y="360" width="170" height="50" as="geometry"/>
        </mxCell>
        <mxCell id="WZpHvqNM9GYi3sBNEaxF-2" value="World News" style="rounded=0;whiteSpace=wrap;html=1;fontSize=18;align=center;fillColor=#dae8fc;strokeColor=#6c8ebf;" vertex="1" parent="3SoM6HA_jyPIw3LqU1Tw-1">
          <mxGeometry x="450" y="360" width="170" height="50" as="geometry"/>
        </mxCell>
        <mxCell id="SFQH_lSibxfokDE7pJIL-0" value="Major App Features" style="text;html=1;strokeColor=none;fillColor=none;align=center;verticalAlign=middle;whiteSpace=wrap;rounded=0;fontSize=18;fontColor=#000000;fontStyle=1" vertex="1" parent="3SoM6HA_jyPIw3LqU1Tw-1">
          <mxGeometry x="563" y="260" width="120" height="20" as="geometry"/>
        </mxCell>
      </root>
    </mxGraphModel>
  </diagram>
  <diagram id="wlAYZMSNxMvzLOQUT90D" name="04 - modules">
    <mxGraphModel dx="747" dy="359" grid="1" gridSize="10" guides="1" tooltips="1" connect="1" arrows="1" fold="1" page="1" pageScale="1" pageWidth="1920" pageHeight="1200" math="0" shadow="0">
      <root>
        <mxCell id="yvNez5VvWC91W-0IzM8K-0"/>
        <mxCell id="yvNez5VvWC91W-0IzM8K-1" parent="yvNez5VvWC91W-0IzM8K-0"/>
        <mxCell id="yvNez5VvWC91W-0IzM8K-2" value="Modules" style="text;html=1;strokeColor=none;fillColor=none;align=center;verticalAlign=middle;whiteSpace=wrap;rounded=0;fontSize=27;fontColor=#000000;fontStyle=1" vertex="1" parent="yvNez5VvWC91W-0IzM8K-1">
          <mxGeometry x="427.5" y="230" width="500" height="20" as="geometry"/>
        </mxCell>
        <mxCell id="yvNez5VvWC91W-0IzM8K-3" value="Organizes code in a project" style="rounded=0;whiteSpace=wrap;html=1;fontSize=14;fontColor=#000000;align=center;" vertex="1" parent="yvNez5VvWC91W-0IzM8K-1">
          <mxGeometry x="427.5" y="264" width="500" height="40" as="geometry"/>
        </mxCell>
        <mxCell id="yvNez5VvWC91W-0IzM8K-7" value="Combining modules + services is a bit awkward.&amp;nbsp; Major change was introduced in Angular v6." style="rounded=0;whiteSpace=wrap;html=1;fontSize=14;fontColor=#000000;align=center;" vertex="1" parent="yvNez5VvWC91W-0IzM8K-1">
          <mxGeometry x="427.5" y="400" width="500" height="40" as="geometry"/>
        </mxCell>
        <mxCell id="yvNez5VvWC91W-0IzM8K-8" value="Forces you to organize your code" style="rounded=0;whiteSpace=wrap;html=1;fontSize=14;fontColor=#000000;align=center;" vertex="1" parent="yvNez5VvWC91W-0IzM8K-1">
          <mxGeometry x="427.5" y="445" width="500" height="40" as="geometry"/>
        </mxCell>
        <mxCell id="yvNez5VvWC91W-0IzM8K-9" value="Can have a huge impact on how quickly your app starts up" style="rounded=0;whiteSpace=wrap;html=1;fontSize=14;fontColor=#000000;align=center;" vertex="1" parent="yvNez5VvWC91W-0IzM8K-1">
          <mxGeometry x="427.5" y="490" width="500" height="40" as="geometry"/>
        </mxCell>
        <mxCell id="GIczURscTnpITPPiAAUS-0" value="Contains a set of components, services, pipes, and directives" style="rounded=0;whiteSpace=wrap;html=1;fontSize=14;fontColor=#000000;align=center;" vertex="1" parent="yvNez5VvWC91W-0IzM8K-1">
          <mxGeometry x="427.5" y="309" width="500" height="40" as="geometry"/>
        </mxCell>
        <mxCell id="lAo7j_EECdqk6Gkgg8ix-0" value="Some modules are built into Angular, others we create on our own" style="rounded=0;whiteSpace=wrap;html=1;fontSize=14;fontColor=#000000;align=center;" vertex="1" parent="yvNez5VvWC91W-0IzM8K-1">
          <mxGeometry x="427.5" y="354" width="500" height="40" as="geometry"/>
        </mxCell>
      </root>
    </mxGraphModel>
  </diagram>
  <diagram id="NePHELgjTmDIw3OwcOcL" name="05 - modules">
    <mxGraphModel dx="747" dy="359" grid="1" gridSize="10" guides="1" tooltips="1" connect="1" arrows="1" fold="1" page="1" pageScale="1" pageWidth="1920" pageHeight="1200" math="0" shadow="0">
      <root>
        <mxCell id="cV5af1RW3ih_n-gjFhCA-0"/>
        <mxCell id="cV5af1RW3ih_n-gjFhCA-1" parent="cV5af1RW3ih_n-gjFhCA-0"/>
        <mxCell id="38YTR_zMsuHVqLdiMxAo-5" value="" style="rounded=0;whiteSpace=wrap;html=1;fontSize=18;align=center;fillColor=#dae8fc;strokeColor=#6c8ebf;" vertex="1" parent="cV5af1RW3ih_n-gjFhCA-1">
          <mxGeometry x="315" y="180" width="70" height="220" as="geometry"/>
        </mxCell>
        <mxCell id="cV5af1RW3ih_n-gjFhCA-2" value="This is a single feature of our app, so we should probably generate a module to contain all the code for it" style="rounded=0;whiteSpace=wrap;html=1;fontSize=12;fontColor=#000000;align=center;" vertex="1" parent="cV5af1RW3ih_n-gjFhCA-1">
          <mxGeometry x="450" y="210" width="340" height="40" as="geometry"/>
        </mxCell>
        <mxCell id="38YTR_zMsuHVqLdiMxAo-0" value="49F&lt;br style=&quot;font-size: 12px;&quot;&gt;Mon" style="rounded=0;whiteSpace=wrap;html=1;fontSize=12;fontColor=#000000;align=center;" vertex="1" parent="cV5af1RW3ih_n-gjFhCA-1">
          <mxGeometry x="330" y="190" width="40" height="40" as="geometry"/>
        </mxCell>
        <mxCell id="38YTR_zMsuHVqLdiMxAo-1" value="49F&lt;br style=&quot;font-size: 12px;&quot;&gt;Tue" style="rounded=0;whiteSpace=wrap;html=1;fontSize=12;fontColor=#000000;align=center;" vertex="1" parent="cV5af1RW3ih_n-gjFhCA-1">
          <mxGeometry x="330" y="230" width="40" height="40" as="geometry"/>
        </mxCell>
        <mxCell id="38YTR_zMsuHVqLdiMxAo-2" value="49F&lt;br style=&quot;font-size: 12px;&quot;&gt;Wed" style="rounded=0;whiteSpace=wrap;html=1;fontSize=12;fontColor=#000000;align=center;" vertex="1" parent="cV5af1RW3ih_n-gjFhCA-1">
          <mxGeometry x="330" y="270" width="40" height="40" as="geometry"/>
        </mxCell>
        <mxCell id="38YTR_zMsuHVqLdiMxAo-3" value="49F&lt;br style=&quot;font-size: 12px;&quot;&gt;Thur" style="rounded=0;whiteSpace=wrap;html=1;fontSize=12;fontColor=#000000;align=center;" vertex="1" parent="cV5af1RW3ih_n-gjFhCA-1">
          <mxGeometry x="330" y="310" width="40" height="40" as="geometry"/>
        </mxCell>
        <mxCell id="38YTR_zMsuHVqLdiMxAo-4" value="49F&lt;br style=&quot;font-size: 12px;&quot;&gt;Fri" style="rounded=0;whiteSpace=wrap;html=1;fontSize=12;fontColor=#000000;align=center;" vertex="1" parent="cV5af1RW3ih_n-gjFhCA-1">
          <mxGeometry x="330" y="350" width="40" height="40" as="geometry"/>
        </mxCell>
        <mxCell id="38YTR_zMsuHVqLdiMxAo-6" value="The &#39;Weather&#39; Feature" style="text;html=1;strokeColor=none;fillColor=none;align=center;verticalAlign=middle;whiteSpace=wrap;rounded=0;fontSize=18;fontColor=#000000;fontStyle=1" vertex="1" parent="cV5af1RW3ih_n-gjFhCA-1">
          <mxGeometry x="505" y="180" width="230" height="20" as="geometry"/>
        </mxCell>
        <mxCell id="38YTR_zMsuHVqLdiMxAo-7" value="Probably need one component called &#39;forecast&#39; or &#39;weather-list&#39; or something to display to use" style="rounded=0;whiteSpace=wrap;html=1;fontSize=12;fontColor=#000000;align=center;" vertex="1" parent="cV5af1RW3ih_n-gjFhCA-1">
          <mxGeometry x="450" y="260" width="340" height="40" as="geometry"/>
        </mxCell>
        <mxCell id="38YTR_zMsuHVqLdiMxAo-8" value="Need to reach out the an API to fetch weather data, so probably need a service" style="rounded=0;whiteSpace=wrap;html=1;fontSize=12;fontColor=#000000;align=center;" vertex="1" parent="cV5af1RW3ih_n-gjFhCA-1">
          <mxGeometry x="450" y="310" width="340" height="40" as="geometry"/>
        </mxCell>
      </root>
    </mxGraphModel>
  </diagram>
  <diagram id="oPp3RSaaAJngrGZt9tWr" name="06 - module">
    <mxGraphModel dx="747" dy="359" grid="1" gridSize="10" guides="1" tooltips="1" connect="1" arrows="1" fold="1" page="1" pageScale="1" pageWidth="1920" pageHeight="1200" math="0" shadow="0">
      <root>
        <mxCell id="y1Wj1AHJQfw8DBTjeAAx-0"/>
        <mxCell id="y1Wj1AHJQfw8DBTjeAAx-1" parent="y1Wj1AHJQfw8DBTjeAAx-0"/>
        <mxCell id="y1Wj1AHJQfw8DBTjeAAx-2" value="Module" style="rounded=0;whiteSpace=wrap;html=1;fontSize=20;align=center;fillColor=#dae8fc;strokeColor=#6c8ebf;" vertex="1" parent="y1Wj1AHJQfw8DBTjeAAx-1">
          <mxGeometry x="340" y="210" width="100" height="300" as="geometry"/>
        </mxCell>
        <mxCell id="y1Wj1AHJQfw8DBTjeAAx-9" style="edgeStyle=orthogonalEdgeStyle;rounded=0;orthogonalLoop=1;jettySize=auto;html=1;exitX=1;exitY=0.5;exitDx=0;exitDy=0;fontSize=13;fontColor=#000000;" edge="1" parent="y1Wj1AHJQfw8DBTjeAAx-1" source="y1Wj1AHJQfw8DBTjeAAx-3" target="y1Wj1AHJQfw8DBTjeAAx-8">
          <mxGeometry relative="1" as="geometry"/>
        </mxCell>
        <mxCell id="y1Wj1AHJQfw8DBTjeAAx-3" value="declarations" style="rounded=0;whiteSpace=wrap;html=1;fontSize=20;fontColor=#000000;align=center;" vertex="1" parent="y1Wj1AHJQfw8DBTjeAAx-1">
          <mxGeometry x="440" y="210" width="150" height="60" as="geometry"/>
        </mxCell>
        <mxCell id="y1Wj1AHJQfw8DBTjeAAx-4" value="imports" style="rounded=0;whiteSpace=wrap;html=1;fontSize=20;fontColor=#000000;align=center;" vertex="1" parent="y1Wj1AHJQfw8DBTjeAAx-1">
          <mxGeometry x="440" y="270" width="150" height="60" as="geometry"/>
        </mxCell>
        <mxCell id="y1Wj1AHJQfw8DBTjeAAx-5" value="exports" style="rounded=0;whiteSpace=wrap;html=1;fontSize=20;fontColor=#000000;align=center;" vertex="1" parent="y1Wj1AHJQfw8DBTjeAAx-1">
          <mxGeometry x="440" y="330" width="150" height="60" as="geometry"/>
        </mxCell>
        <mxCell id="y1Wj1AHJQfw8DBTjeAAx-6" value="providers" style="rounded=0;whiteSpace=wrap;html=1;fontSize=20;fontColor=#000000;align=center;" vertex="1" parent="y1Wj1AHJQfw8DBTjeAAx-1">
          <mxGeometry x="440" y="390" width="150" height="60" as="geometry"/>
        </mxCell>
        <mxCell id="y1Wj1AHJQfw8DBTjeAAx-7" value="bootstrap" style="rounded=0;whiteSpace=wrap;html=1;fontSize=20;fontColor=#000000;align=center;" vertex="1" parent="y1Wj1AHJQfw8DBTjeAAx-1">
          <mxGeometry x="440" y="450" width="150" height="60" as="geometry"/>
        </mxCell>
        <mxCell id="y1Wj1AHJQfw8DBTjeAAx-8" value="List of components, directives, and pipes (no services!) that are created by this module" style="rounded=0;whiteSpace=wrap;html=1;fontSize=13;fontColor=#000000;align=center;" vertex="1" parent="y1Wj1AHJQfw8DBTjeAAx-1">
          <mxGeometry x="620" y="220" width="340" height="40" as="geometry"/>
        </mxCell>
        <mxCell id="y1Wj1AHJQfw8DBTjeAAx-10" style="edgeStyle=orthogonalEdgeStyle;rounded=0;orthogonalLoop=1;jettySize=auto;html=1;exitX=1;exitY=0.5;exitDx=0;exitDy=0;fontSize=13;fontColor=#000000;" edge="1" parent="y1Wj1AHJQfw8DBTjeAAx-1" target="y1Wj1AHJQfw8DBTjeAAx-11">
          <mxGeometry relative="1" as="geometry">
            <mxPoint x="590" y="300" as="sourcePoint"/>
          </mxGeometry>
        </mxCell>
        <mxCell id="y1Wj1AHJQfw8DBTjeAAx-11" value="List of other modules that this module needs to work correctly" style="rounded=0;whiteSpace=wrap;html=1;fontSize=13;fontColor=#000000;align=center;" vertex="1" parent="y1Wj1AHJQfw8DBTjeAAx-1">
          <mxGeometry x="620" y="280" width="340" height="40" as="geometry"/>
        </mxCell>
        <mxCell id="y1Wj1AHJQfw8DBTjeAAx-12" style="edgeStyle=orthogonalEdgeStyle;rounded=0;orthogonalLoop=1;jettySize=auto;html=1;exitX=1;exitY=0.5;exitDx=0;exitDy=0;fontSize=13;fontColor=#000000;" edge="1" parent="y1Wj1AHJQfw8DBTjeAAx-1" target="y1Wj1AHJQfw8DBTjeAAx-13">
          <mxGeometry relative="1" as="geometry">
            <mxPoint x="590" y="360" as="sourcePoint"/>
          </mxGeometry>
        </mxCell>
        <mxCell id="y1Wj1AHJQfw8DBTjeAAx-13" value="List of components, directives, and pipes (no services!) that this module wants to make available to others" style="rounded=0;whiteSpace=wrap;html=1;fontSize=13;fontColor=#000000;align=center;" vertex="1" parent="y1Wj1AHJQfw8DBTjeAAx-1">
          <mxGeometry x="620" y="340" width="340" height="40" as="geometry"/>
        </mxCell>
        <mxCell id="y1Wj1AHJQfw8DBTjeAAx-14" style="edgeStyle=orthogonalEdgeStyle;rounded=0;orthogonalLoop=1;jettySize=auto;html=1;exitX=1;exitY=0.5;exitDx=0;exitDy=0;fontSize=13;fontColor=#000000;" edge="1" parent="y1Wj1AHJQfw8DBTjeAAx-1" target="y1Wj1AHJQfw8DBTjeAAx-15">
          <mxGeometry relative="1" as="geometry">
            <mxPoint x="590" y="420" as="sourcePoint"/>
          </mxGeometry>
        </mxCell>
        <mxCell id="y1Wj1AHJQfw8DBTjeAAx-15" value="Pre-angular v6 way of wiring up services" style="rounded=0;whiteSpace=wrap;html=1;fontSize=13;fontColor=#000000;align=center;" vertex="1" parent="y1Wj1AHJQfw8DBTjeAAx-1">
          <mxGeometry x="620" y="400" width="340" height="40" as="geometry"/>
        </mxCell>
        <mxCell id="y1Wj1AHJQfw8DBTjeAAx-16" style="edgeStyle=orthogonalEdgeStyle;rounded=0;orthogonalLoop=1;jettySize=auto;html=1;exitX=1;exitY=0.5;exitDx=0;exitDy=0;fontSize=13;fontColor=#000000;" edge="1" parent="y1Wj1AHJQfw8DBTjeAAx-1" target="y1Wj1AHJQfw8DBTjeAAx-17">
          <mxGeometry relative="1" as="geometry">
            <mxPoint x="590" y="480" as="sourcePoint"/>
          </mxGeometry>
        </mxCell>
        <mxCell id="y1Wj1AHJQfw8DBTjeAAx-17" value="Only present in the &#39;App&#39; module.&amp;nbsp; Designates the first component to be created when app starts up" style="rounded=0;whiteSpace=wrap;html=1;fontSize=13;fontColor=#000000;align=center;" vertex="1" parent="y1Wj1AHJQfw8DBTjeAAx-1">
          <mxGeometry x="620" y="460" width="340" height="40" as="geometry"/>
        </mxCell>
      </root>
    </mxGraphModel>
  </diagram>
  <diagram id="3MMcGHzifItzzQaq6MXG" name="10 - modoule">
    <mxGraphModel dx="747" dy="359" grid="1" gridSize="10" guides="1" tooltips="1" connect="1" arrows="1" fold="1" page="1" pageScale="1" pageWidth="1920" pageHeight="1200" math="0" shadow="0">
      <root>
        <mxCell id="bAgR2MrKE4kFnoSZmyXy-0"/>
        <mxCell id="bAgR2MrKE4kFnoSZmyXy-1" parent="bAgR2MrKE4kFnoSZmyXy-0"/>
        <mxCell id="HilwRJFm_lTcRS3zxQDQ-0" value="" style="rounded=0;whiteSpace=wrap;html=1;fontSize=16;align=center;fillColor=#dae8fc;strokeColor=#6c8ebf;" vertex="1" parent="bAgR2MrKE4kFnoSZmyXy-1">
          <mxGeometry x="430" y="270" width="270" height="210" as="geometry"/>
        </mxCell>
        <mxCell id="HilwRJFm_lTcRS3zxQDQ-1" value="Blog Module" style="text;html=1;strokeColor=none;fillColor=none;align=center;verticalAlign=middle;whiteSpace=wrap;rounded=0;fontSize=16;fontColor=#000000;fontStyle=1" vertex="1" parent="bAgR2MrKE4kFnoSZmyXy-1">
          <mxGeometry x="512.5" y="280" width="105" height="20" as="geometry"/>
        </mxCell>
        <mxCell id="YtUarNgVkNcRXZN7iKow-0" style="edgeStyle=orthogonalEdgeStyle;rounded=0;orthogonalLoop=1;jettySize=auto;html=1;exitX=1;exitY=0.5;exitDx=0;exitDy=0;entryX=0;entryY=0.25;entryDx=0;entryDy=0;fontSize=12;fontColor=#000000;" edge="1" parent="bAgR2MrKE4kFnoSZmyXy-1" source="HilwRJFm_lTcRS3zxQDQ-4" target="HilwRJFm_lTcRS3zxQDQ-9">
          <mxGeometry relative="1" as="geometry"/>
        </mxCell>
        <mxCell id="HilwRJFm_lTcRS3zxQDQ-4" value="BlogShow Component" style="rounded=0;whiteSpace=wrap;html=1;fontSize=16;align=center;fillColor=#ffe6cc;strokeColor=#d79b00;" vertex="1" parent="bAgR2MrKE4kFnoSZmyXy-1">
          <mxGeometry x="440" y="335" width="90" height="40" as="geometry"/>
        </mxCell>
        <mxCell id="HilwRJFm_lTcRS3zxQDQ-5" value="imports" style="rounded=0;whiteSpace=wrap;html=1;fontSize=15;fontColor=#000000;align=center;" vertex="1" parent="bAgR2MrKE4kFnoSZmyXy-1">
          <mxGeometry x="610" y="360" width="90" height="30" as="geometry"/>
        </mxCell>
        <mxCell id="HilwRJFm_lTcRS3zxQDQ-6" value="exports" style="rounded=0;whiteSpace=wrap;html=1;fontSize=15;fontColor=#000000;align=center;" vertex="1" parent="bAgR2MrKE4kFnoSZmyXy-1">
          <mxGeometry x="610" y="390" width="90" height="30" as="geometry"/>
        </mxCell>
        <mxCell id="HilwRJFm_lTcRS3zxQDQ-7" value="providers" style="rounded=0;whiteSpace=wrap;html=1;fontSize=15;fontColor=#000000;align=center;" vertex="1" parent="bAgR2MrKE4kFnoSZmyXy-1">
          <mxGeometry x="610" y="420" width="90" height="30" as="geometry"/>
        </mxCell>
        <mxCell id="HilwRJFm_lTcRS3zxQDQ-9" value="declarations" style="rounded=0;whiteSpace=wrap;html=1;fontSize=15;fontColor=#000000;align=center;" vertex="1" parent="bAgR2MrKE4kFnoSZmyXy-1">
          <mxGeometry x="610" y="330" width="90" height="30" as="geometry"/>
        </mxCell>
        <mxCell id="YtUarNgVkNcRXZN7iKow-1" style="edgeStyle=orthogonalEdgeStyle;rounded=0;orthogonalLoop=1;jettySize=auto;html=1;exitX=1;exitY=0.5;exitDx=0;exitDy=0;entryX=0;entryY=0.75;entryDx=0;entryDy=0;fontSize=12;fontColor=#000000;" edge="1" parent="bAgR2MrKE4kFnoSZmyXy-1" source="HilwRJFm_lTcRS3zxQDQ-10" target="HilwRJFm_lTcRS3zxQDQ-9">
          <mxGeometry relative="1" as="geometry">
            <Array as="points">
              <mxPoint x="580" y="420"/>
              <mxPoint x="580" y="353"/>
            </Array>
          </mxGeometry>
        </mxCell>
        <mxCell id="YtUarNgVkNcRXZN7iKow-2" style="edgeStyle=orthogonalEdgeStyle;rounded=0;orthogonalLoop=1;jettySize=auto;html=1;exitX=1;exitY=0.5;exitDx=0;exitDy=0;entryX=0;entryY=0.5;entryDx=0;entryDy=0;fontSize=12;fontColor=#000000;" edge="1" parent="bAgR2MrKE4kFnoSZmyXy-1" source="HilwRJFm_lTcRS3zxQDQ-10" target="HilwRJFm_lTcRS3zxQDQ-6">
          <mxGeometry relative="1" as="geometry">
            <Array as="points">
              <mxPoint x="580" y="420"/>
              <mxPoint x="580" y="405"/>
            </Array>
          </mxGeometry>
        </mxCell>
        <mxCell id="HilwRJFm_lTcRS3zxQDQ-10" value="BlogList Component" style="rounded=0;whiteSpace=wrap;html=1;fontSize=16;align=center;fillColor=#ffe6cc;strokeColor=#d79b00;" vertex="1" parent="bAgR2MrKE4kFnoSZmyXy-1">
          <mxGeometry x="440" y="400" width="90" height="40" as="geometry"/>
        </mxCell>
      </root>
    </mxGraphModel>
  </diagram>
  <diagram name="11 - module" id="DRbPXuJC_6MBM3J7f1U3">
    <mxGraphModel dx="747" dy="359" grid="1" gridSize="10" guides="1" tooltips="1" connect="1" arrows="1" fold="1" page="1" pageScale="1" pageWidth="1920" pageHeight="1200" math="0" shadow="0">
      <root>
        <mxCell id="S5V6nnM-W1yFziMxwGLg-0"/>
        <mxCell id="S5V6nnM-W1yFziMxwGLg-1" parent="S5V6nnM-W1yFziMxwGLg-0"/>
        <mxCell id="S5V6nnM-W1yFziMxwGLg-2" value="" style="rounded=0;whiteSpace=wrap;html=1;fontSize=16;align=center;fillColor=#dae8fc;strokeColor=#6c8ebf;" vertex="1" parent="S5V6nnM-W1yFziMxwGLg-1">
          <mxGeometry x="430" y="270" width="270" height="210" as="geometry"/>
        </mxCell>
        <mxCell id="S5V6nnM-W1yFziMxwGLg-3" value="Blog Module" style="text;html=1;strokeColor=none;fillColor=none;align=center;verticalAlign=middle;whiteSpace=wrap;rounded=0;fontSize=16;fontColor=#000000;fontStyle=1" vertex="1" parent="S5V6nnM-W1yFziMxwGLg-1">
          <mxGeometry x="512.5" y="280" width="105" height="20" as="geometry"/>
        </mxCell>
        <mxCell id="S5V6nnM-W1yFziMxwGLg-4" style="edgeStyle=orthogonalEdgeStyle;rounded=0;orthogonalLoop=1;jettySize=auto;html=1;exitX=1;exitY=0.5;exitDx=0;exitDy=0;entryX=0;entryY=0.25;entryDx=0;entryDy=0;fontSize=15;fontColor=#000000;" edge="1" parent="S5V6nnM-W1yFziMxwGLg-1" source="S5V6nnM-W1yFziMxwGLg-5" target="S5V6nnM-W1yFziMxwGLg-9">
          <mxGeometry relative="1" as="geometry">
            <Array as="points">
              <mxPoint x="530" y="345"/>
              <mxPoint x="570" y="345"/>
              <mxPoint x="570" y="338"/>
            </Array>
          </mxGeometry>
        </mxCell>
        <mxCell id="S5V6nnM-W1yFziMxwGLg-5" value="BlogShow Component" style="rounded=0;whiteSpace=wrap;html=1;fontSize=16;align=center;fillColor=#ffe6cc;strokeColor=#d79b00;" vertex="1" parent="S5V6nnM-W1yFziMxwGLg-1">
          <mxGeometry x="440" y="335" width="90" height="40" as="geometry"/>
        </mxCell>
        <mxCell id="S5V6nnM-W1yFziMxwGLg-6" value="imports" style="rounded=0;whiteSpace=wrap;html=1;fontSize=15;fontColor=#000000;align=center;" vertex="1" parent="S5V6nnM-W1yFziMxwGLg-1">
          <mxGeometry x="610" y="360" width="90" height="30" as="geometry"/>
        </mxCell>
        <mxCell id="S5V6nnM-W1yFziMxwGLg-7" value="exports" style="rounded=0;whiteSpace=wrap;html=1;fontSize=15;fontColor=#000000;align=center;" vertex="1" parent="S5V6nnM-W1yFziMxwGLg-1">
          <mxGeometry x="610" y="390" width="90" height="30" as="geometry"/>
        </mxCell>
        <mxCell id="S5V6nnM-W1yFziMxwGLg-8" value="providers" style="rounded=0;whiteSpace=wrap;html=1;fontSize=15;fontColor=#000000;align=center;" vertex="1" parent="S5V6nnM-W1yFziMxwGLg-1">
          <mxGeometry x="610" y="420" width="90" height="30" as="geometry"/>
        </mxCell>
        <mxCell id="S5V6nnM-W1yFziMxwGLg-9" value="declarations" style="rounded=0;whiteSpace=wrap;html=1;fontSize=15;fontColor=#000000;align=center;" vertex="1" parent="S5V6nnM-W1yFziMxwGLg-1">
          <mxGeometry x="610" y="330" width="90" height="30" as="geometry"/>
        </mxCell>
        <mxCell id="S5V6nnM-W1yFziMxwGLg-10" style="edgeStyle=orthogonalEdgeStyle;rounded=0;orthogonalLoop=1;jettySize=auto;html=1;exitX=1;exitY=0.5;exitDx=0;exitDy=0;entryX=0;entryY=0.5;entryDx=0;entryDy=0;fontSize=15;fontColor=#000000;" edge="1" parent="S5V6nnM-W1yFziMxwGLg-1" source="S5V6nnM-W1yFziMxwGLg-12" target="S5V6nnM-W1yFziMxwGLg-7">
          <mxGeometry relative="1" as="geometry"/>
        </mxCell>
        <mxCell id="S5V6nnM-W1yFziMxwGLg-11" style="edgeStyle=orthogonalEdgeStyle;rounded=0;orthogonalLoop=1;jettySize=auto;html=1;exitX=1;exitY=0.5;exitDx=0;exitDy=0;entryX=0;entryY=0.75;entryDx=0;entryDy=0;fontSize=15;fontColor=#000000;" edge="1" parent="S5V6nnM-W1yFziMxwGLg-1" source="S5V6nnM-W1yFziMxwGLg-12" target="S5V6nnM-W1yFziMxwGLg-9">
          <mxGeometry relative="1" as="geometry"/>
        </mxCell>
        <mxCell id="S5V6nnM-W1yFziMxwGLg-12" value="BlogList Component" style="rounded=0;whiteSpace=wrap;html=1;fontSize=16;align=center;fillColor=#ffe6cc;strokeColor=#d79b00;" vertex="1" parent="S5V6nnM-W1yFziMxwGLg-1">
          <mxGeometry x="440" y="400" width="90" height="40" as="geometry"/>
        </mxCell>
        <mxCell id="S5V6nnM-W1yFziMxwGLg-13" value="" style="shape=curlyBracket;whiteSpace=wrap;html=1;rounded=1;fontSize=15;fontColor=#000000;align=center;" vertex="1" parent="S5V6nnM-W1yFziMxwGLg-1">
          <mxGeometry x="410" y="335" width="26" height="40" as="geometry"/>
        </mxCell>
        <mxCell id="S5V6nnM-W1yFziMxwGLg-14" value="Can be nested in any other component in the Blog Module" style="text;html=1;strokeColor=none;fillColor=none;align=right;verticalAlign=middle;whiteSpace=wrap;rounded=0;fontSize=12;fontColor=#000000;fontStyle=2" vertex="1" parent="S5V6nnM-W1yFziMxwGLg-1">
          <mxGeometry x="260" y="345" width="150" height="20" as="geometry"/>
        </mxCell>
        <mxCell id="S5V6nnM-W1yFziMxwGLg-15" value="" style="shape=curlyBracket;whiteSpace=wrap;html=1;rounded=1;fontSize=15;fontColor=#000000;align=center;" vertex="1" parent="S5V6nnM-W1yFziMxwGLg-1">
          <mxGeometry x="410" y="400" width="26" height="40" as="geometry"/>
        </mxCell>
        <mxCell id="S5V6nnM-W1yFziMxwGLg-16" value="Can be nested in any other component in this module &lt;b&gt;AND&lt;/b&gt;&amp;nbsp;can be imported into other modules and shown there" style="text;html=1;strokeColor=none;fillColor=none;align=right;verticalAlign=middle;whiteSpace=wrap;rounded=0;fontSize=12;fontColor=#000000;fontStyle=2" vertex="1" parent="S5V6nnM-W1yFziMxwGLg-1">
          <mxGeometry x="230" y="410" width="180" height="20" as="geometry"/>
        </mxCell>
      </root>
    </mxGraphModel>
  </diagram>
  <diagram id="hXJQM1aDz2iRw9iC00GP" name="07 - show">
    <mxGraphModel dx="747" dy="359" grid="1" gridSize="10" guides="1" tooltips="1" connect="1" arrows="1" fold="1" page="1" pageScale="1" pageWidth="1920" pageHeight="1200" math="0" shadow="0">
      <root>
        <mxCell id="QJPj1-usshak65b7f9_I-0"/>
        <mxCell id="QJPj1-usshak65b7f9_I-1" parent="QJPj1-usshak65b7f9_I-0"/>
        <mxCell id="QJPj1-usshak65b7f9_I-2" value="" style="rounded=0;whiteSpace=wrap;html=1;fontSize=16;align=center;fillColor=#dae8fc;strokeColor=#6c8ebf;" vertex="1" parent="QJPj1-usshak65b7f9_I-1">
          <mxGeometry x="430" y="270" width="270" height="210" as="geometry"/>
        </mxCell>
        <mxCell id="QJPj1-usshak65b7f9_I-3" value="App Module" style="text;html=1;strokeColor=none;fillColor=none;align=center;verticalAlign=middle;whiteSpace=wrap;rounded=0;fontSize=16;fontColor=#000000;fontStyle=1" vertex="1" parent="QJPj1-usshak65b7f9_I-1">
          <mxGeometry x="512.5" y="280" width="105" height="20" as="geometry"/>
        </mxCell>
        <mxCell id="ggk_adY_ht3SZCrjvmTR-0" style="edgeStyle=orthogonalEdgeStyle;rounded=0;orthogonalLoop=1;jettySize=auto;html=1;exitX=1;exitY=0.5;exitDx=0;exitDy=0;entryX=0;entryY=0.5;entryDx=0;entryDy=0;fontSize=12;fontColor=#000000;" edge="1" parent="QJPj1-usshak65b7f9_I-1" source="QJPj1-usshak65b7f9_I-4" target="NtTGLgqVjkrlerjY_hys-0">
          <mxGeometry relative="1" as="geometry"/>
        </mxCell>
        <mxCell id="ggk_adY_ht3SZCrjvmTR-1" style="edgeStyle=orthogonalEdgeStyle;rounded=0;orthogonalLoop=1;jettySize=auto;html=1;exitX=1;exitY=0.5;exitDx=0;exitDy=0;entryX=0;entryY=0.5;entryDx=0;entryDy=0;fontSize=12;fontColor=#000000;" edge="1" parent="QJPj1-usshak65b7f9_I-1" source="QJPj1-usshak65b7f9_I-4" target="ii_--3rbilPi_QUXdKRT-3">
          <mxGeometry relative="1" as="geometry"/>
        </mxCell>
        <mxCell id="QJPj1-usshak65b7f9_I-4" value="App Component" style="rounded=0;whiteSpace=wrap;html=1;fontSize=16;align=center;fillColor=#ffe6cc;strokeColor=#d79b00;" vertex="1" parent="QJPj1-usshak65b7f9_I-1">
          <mxGeometry x="440" y="365" width="90" height="40" as="geometry"/>
        </mxCell>
        <mxCell id="ggk_adY_ht3SZCrjvmTR-4" style="edgeStyle=orthogonalEdgeStyle;rounded=0;orthogonalLoop=1;jettySize=auto;html=1;exitX=1;exitY=0.5;exitDx=0;exitDy=0;entryX=-0.007;entryY=0.1;entryDx=0;entryDy=0;entryPerimeter=0;fontSize=12;fontColor=#000000;" edge="1" parent="QJPj1-usshak65b7f9_I-1" source="ii_--3rbilPi_QUXdKRT-0" target="NtTGLgqVjkrlerjY_hys-3">
          <mxGeometry relative="1" as="geometry"/>
        </mxCell>
        <mxCell id="ii_--3rbilPi_QUXdKRT-0" value="imports" style="rounded=0;whiteSpace=wrap;html=1;fontSize=15;fontColor=#000000;align=center;" vertex="1" parent="QJPj1-usshak65b7f9_I-1">
          <mxGeometry x="610" y="340" width="90" height="30" as="geometry"/>
        </mxCell>
        <mxCell id="ii_--3rbilPi_QUXdKRT-1" value="exports" style="rounded=0;whiteSpace=wrap;html=1;fontSize=15;fontColor=#000000;align=center;" vertex="1" parent="QJPj1-usshak65b7f9_I-1">
          <mxGeometry x="610" y="370" width="90" height="30" as="geometry"/>
        </mxCell>
        <mxCell id="ii_--3rbilPi_QUXdKRT-2" value="providers" style="rounded=0;whiteSpace=wrap;html=1;fontSize=15;fontColor=#000000;align=center;" vertex="1" parent="QJPj1-usshak65b7f9_I-1">
          <mxGeometry x="610" y="400" width="90" height="30" as="geometry"/>
        </mxCell>
        <mxCell id="ii_--3rbilPi_QUXdKRT-3" value="bootstrap" style="rounded=0;whiteSpace=wrap;html=1;fontSize=15;fontColor=#000000;align=center;" vertex="1" parent="QJPj1-usshak65b7f9_I-1">
          <mxGeometry x="610" y="430" width="90" height="30" as="geometry"/>
        </mxCell>
        <mxCell id="NtTGLgqVjkrlerjY_hys-0" value="declarations" style="rounded=0;whiteSpace=wrap;html=1;fontSize=15;fontColor=#000000;align=center;" vertex="1" parent="QJPj1-usshak65b7f9_I-1">
          <mxGeometry x="610" y="310" width="90" height="30" as="geometry"/>
        </mxCell>
        <mxCell id="NtTGLgqVjkrlerjY_hys-3" value="" style="rounded=0;whiteSpace=wrap;html=1;fontSize=16;align=center;fillColor=#dae8fc;strokeColor=#6c8ebf;" vertex="1" parent="QJPj1-usshak65b7f9_I-1">
          <mxGeometry x="820" y="270" width="270" height="210" as="geometry"/>
        </mxCell>
        <mxCell id="NtTGLgqVjkrlerjY_hys-4" value="Weather Module" style="text;html=1;strokeColor=none;fillColor=none;align=center;verticalAlign=middle;whiteSpace=wrap;rounded=0;fontSize=16;fontColor=#000000;fontStyle=1" vertex="1" parent="QJPj1-usshak65b7f9_I-1">
          <mxGeometry x="876.25" y="280" width="157.5" height="20" as="geometry"/>
        </mxCell>
        <mxCell id="ggk_adY_ht3SZCrjvmTR-2" style="edgeStyle=orthogonalEdgeStyle;rounded=0;orthogonalLoop=1;jettySize=auto;html=1;exitX=0;exitY=0.5;exitDx=0;exitDy=0;entryX=1;entryY=0.5;entryDx=0;entryDy=0;fontSize=12;fontColor=#000000;" edge="1" parent="QJPj1-usshak65b7f9_I-1" source="NtTGLgqVjkrlerjY_hys-7" target="NtTGLgqVjkrlerjY_hys-12">
          <mxGeometry relative="1" as="geometry"/>
        </mxCell>
        <mxCell id="ggk_adY_ht3SZCrjvmTR-3" style="edgeStyle=orthogonalEdgeStyle;rounded=0;orthogonalLoop=1;jettySize=auto;html=1;exitX=0;exitY=0.5;exitDx=0;exitDy=0;entryX=1;entryY=0.5;entryDx=0;entryDy=0;fontSize=12;fontColor=#000000;" edge="1" parent="QJPj1-usshak65b7f9_I-1" source="NtTGLgqVjkrlerjY_hys-7" target="NtTGLgqVjkrlerjY_hys-9">
          <mxGeometry relative="1" as="geometry"/>
        </mxCell>
        <mxCell id="NtTGLgqVjkrlerjY_hys-7" value="Forecast Component" style="rounded=0;whiteSpace=wrap;html=1;fontSize=16;align=center;fillColor=#ffe6cc;strokeColor=#d79b00;" vertex="1" parent="QJPj1-usshak65b7f9_I-1">
          <mxGeometry x="1000" y="365" width="90" height="40" as="geometry"/>
        </mxCell>
        <mxCell id="NtTGLgqVjkrlerjY_hys-8" value="imports" style="rounded=0;whiteSpace=wrap;html=1;fontSize=15;fontColor=#000000;align=center;" vertex="1" parent="QJPj1-usshak65b7f9_I-1">
          <mxGeometry x="820" y="355" width="90" height="30" as="geometry"/>
        </mxCell>
        <mxCell id="NtTGLgqVjkrlerjY_hys-9" value="exports" style="rounded=0;whiteSpace=wrap;html=1;fontSize=15;fontColor=#000000;align=center;" vertex="1" parent="QJPj1-usshak65b7f9_I-1">
          <mxGeometry x="820" y="385" width="90" height="30" as="geometry"/>
        </mxCell>
        <mxCell id="NtTGLgqVjkrlerjY_hys-10" value="providers" style="rounded=0;whiteSpace=wrap;html=1;fontSize=15;fontColor=#000000;align=center;" vertex="1" parent="QJPj1-usshak65b7f9_I-1">
          <mxGeometry x="820" y="415" width="90" height="30" as="geometry"/>
        </mxCell>
        <mxCell id="NtTGLgqVjkrlerjY_hys-12" value="declarations" style="rounded=0;whiteSpace=wrap;html=1;fontSize=15;fontColor=#000000;align=center;" vertex="1" parent="QJPj1-usshak65b7f9_I-1">
          <mxGeometry x="820" y="325" width="90" height="30" as="geometry"/>
        </mxCell>
      </root>
    </mxGraphModel>
  </diagram>
  <diagram id="ts7rCatbMDabcBSg71KX" name="07 - weather">
    <mxGraphModel dx="747" dy="359" grid="1" gridSize="10" guides="1" tooltips="1" connect="1" arrows="1" fold="1" page="1" pageScale="1" pageWidth="1920" pageHeight="1200" math="0" shadow="0">
      <root>
        <mxCell id="-0tLmjFovVv1OZcaFcBP-0"/>
        <mxCell id="-0tLmjFovVv1OZcaFcBP-1" parent="-0tLmjFovVv1OZcaFcBP-0"/>
        <mxCell id="-0tLmjFovVv1OZcaFcBP-2" value="openweathermap.org" style="rounded=0;whiteSpace=wrap;html=1;fontSize=25;align=center;fillColor=#dae8fc;strokeColor=#6c8ebf;fontStyle=1" vertex="1" parent="-0tLmjFovVv1OZcaFcBP-1">
          <mxGeometry x="500" y="270" width="350" height="90" as="geometry"/>
        </mxCell>
      </root>
    </mxGraphModel>
  </diagram>
  <diagram id="GeAdAU4uI79BnhkX6NES" name="08 - method">
    <mxGraphModel dx="747" dy="359" grid="1" gridSize="10" guides="1" tooltips="1" connect="1" arrows="1" fold="1" page="1" pageScale="1" pageWidth="1920" pageHeight="1200" math="0" shadow="0">
      <root>
        <mxCell id="4pYhQTcvPVw--77Q3iF8-0"/>
        <mxCell id="4pYhQTcvPVw--77Q3iF8-1" parent="4pYhQTcvPVw--77Q3iF8-0"/>
        <mxCell id="4pYhQTcvPVw--77Q3iF8-6" style="edgeStyle=orthogonalEdgeStyle;rounded=0;orthogonalLoop=1;jettySize=auto;html=1;exitX=0.5;exitY=1;exitDx=0;exitDy=0;fontSize=16;fontColor=#000000;" edge="1" parent="4pYhQTcvPVw--77Q3iF8-1" source="4pYhQTcvPVw--77Q3iF8-3">
          <mxGeometry relative="1" as="geometry">
            <mxPoint x="705" y="300" as="targetPoint"/>
          </mxGeometry>
        </mxCell>
        <mxCell id="4pYhQTcvPVw--77Q3iF8-3" value="" style="rounded=0;whiteSpace=wrap;html=1;fontSize=25;align=center;fillColor=#d5e8d4;strokeColor=#82b366;" vertex="1" parent="4pYhQTcvPVw--77Q3iF8-1">
          <mxGeometry x="570" y="210" width="270" height="70" as="geometry"/>
        </mxCell>
        <mxCell id="4pYhQTcvPVw--77Q3iF8-4" value="Observable" style="text;html=1;strokeColor=none;fillColor=none;align=center;verticalAlign=middle;whiteSpace=wrap;rounded=0;fontSize=25;fontColor=#000000;fontStyle=1" vertex="1" parent="4pYhQTcvPVw--77Q3iF8-1">
          <mxGeometry x="685" y="217" width="40" height="20" as="geometry"/>
        </mxCell>
        <mxCell id="4pYhQTcvPVw--77Q3iF8-5" value="{ latitude: 0, longitude: 0 }" style="text;html=1;strokeColor=none;fillColor=none;align=center;verticalAlign=middle;whiteSpace=wrap;rounded=0;fontSize=16;fontColor=#000000;" vertex="1" parent="4pYhQTcvPVw--77Q3iF8-1">
          <mxGeometry x="582.5" y="250" width="245" height="20" as="geometry"/>
        </mxCell>
        <mxCell id="myzO5Maf2v01JiZMeQdz-4" style="edgeStyle=orthogonalEdgeStyle;rounded=0;orthogonalLoop=1;jettySize=auto;html=1;exitX=0.5;exitY=1;exitDx=0;exitDy=0;fontSize=22;fontColor=#000000;" edge="1" parent="4pYhQTcvPVw--77Q3iF8-1" source="4pYhQTcvPVw--77Q3iF8-10" target="myzO5Maf2v01JiZMeQdz-3">
          <mxGeometry relative="1" as="geometry"/>
        </mxCell>
        <mxCell id="4pYhQTcvPVw--77Q3iF8-10" value="map" style="rounded=0;whiteSpace=wrap;html=1;fontSize=22;fontColor=#000000;align=center;" vertex="1" parent="4pYhQTcvPVw--77Q3iF8-1">
          <mxGeometry x="810" y="300" width="130" height="60" as="geometry"/>
        </mxCell>
        <mxCell id="myzO5Maf2v01JiZMeQdz-1" style="edgeStyle=orthogonalEdgeStyle;rounded=0;orthogonalLoop=1;jettySize=auto;html=1;exitX=1;exitY=0.5;exitDx=0;exitDy=0;fontSize=15;fontColor=#000000;" edge="1" parent="4pYhQTcvPVw--77Q3iF8-1" source="myzO5Maf2v01JiZMeQdz-0" target="4pYhQTcvPVw--77Q3iF8-10">
          <mxGeometry relative="1" as="geometry"/>
        </mxCell>
        <mxCell id="myzO5Maf2v01JiZMeQdz-0" value="{ latitude: 0, longitude: 0 }" style="rounded=0;whiteSpace=wrap;html=1;fontSize=15;align=center;fillColor=#fff2cc;strokeColor=#d6b656;" vertex="1" parent="4pYhQTcvPVw--77Q3iF8-1">
          <mxGeometry x="645" y="300" width="120" height="60" as="geometry"/>
        </mxCell>
        <mxCell id="myzO5Maf2v01JiZMeQdz-7" style="edgeStyle=orthogonalEdgeStyle;rounded=0;orthogonalLoop=1;jettySize=auto;html=1;exitX=1;exitY=0.5;exitDx=0;exitDy=0;entryX=0;entryY=0.5;entryDx=0;entryDy=0;fontSize=22;fontColor=#000000;" edge="1" parent="4pYhQTcvPVw--77Q3iF8-1" source="myzO5Maf2v01JiZMeQdz-3" target="myzO5Maf2v01JiZMeQdz-6">
          <mxGeometry relative="1" as="geometry"/>
        </mxCell>
        <mxCell id="myzO5Maf2v01JiZMeQdz-3" value="HttpParams" style="rounded=0;whiteSpace=wrap;html=1;fontSize=15;align=center;fillColor=#fff2cc;strokeColor=#d6b656;" vertex="1" parent="4pYhQTcvPVw--77Q3iF8-1">
          <mxGeometry x="645" y="400" width="120" height="60" as="geometry"/>
        </mxCell>
        <mxCell id="myzO5Maf2v01JiZMeQdz-9" style="edgeStyle=orthogonalEdgeStyle;rounded=0;orthogonalLoop=1;jettySize=auto;html=1;exitX=0.5;exitY=1;exitDx=0;exitDy=0;fontSize=22;fontColor=#000000;" edge="1" parent="4pYhQTcvPVw--77Q3iF8-1" source="myzO5Maf2v01JiZMeQdz-6" target="myzO5Maf2v01JiZMeQdz-8">
          <mxGeometry relative="1" as="geometry"/>
        </mxCell>
        <mxCell id="myzO5Maf2v01JiZMeQdz-6" value="switchMap" style="rounded=0;whiteSpace=wrap;html=1;fontSize=22;fontColor=#000000;align=center;" vertex="1" parent="4pYhQTcvPVw--77Q3iF8-1">
          <mxGeometry x="810" y="400" width="130" height="60" as="geometry"/>
        </mxCell>
        <mxCell id="myzO5Maf2v01JiZMeQdz-15" style="edgeStyle=orthogonalEdgeStyle;rounded=0;orthogonalLoop=1;jettySize=auto;html=1;exitX=0.5;exitY=1;exitDx=0;exitDy=0;fontSize=22;fontColor=#000000;" edge="1" parent="4pYhQTcvPVw--77Q3iF8-1" source="myzO5Maf2v01JiZMeQdz-8" target="myzO5Maf2v01JiZMeQdz-14">
          <mxGeometry relative="1" as="geometry"/>
        </mxCell>
        <mxCell id="myzO5Maf2v01JiZMeQdz-8" value="" style="rounded=0;whiteSpace=wrap;html=1;fontSize=25;align=center;fillColor=#d5e8d4;strokeColor=#82b366;" vertex="1" parent="4pYhQTcvPVw--77Q3iF8-1">
          <mxGeometry x="570" y="500" width="270" height="70" as="geometry"/>
        </mxCell>
        <mxCell id="myzO5Maf2v01JiZMeQdz-12" value="Observable" style="text;html=1;strokeColor=none;fillColor=none;align=center;verticalAlign=middle;whiteSpace=wrap;rounded=0;fontSize=25;fontColor=#000000;fontStyle=1" vertex="1" parent="4pYhQTcvPVw--77Q3iF8-1">
          <mxGeometry x="685" y="510" width="40" height="20" as="geometry"/>
        </mxCell>
        <mxCell id="myzO5Maf2v01JiZMeQdz-13" value="WeatherResponse" style="text;html=1;strokeColor=none;fillColor=none;align=center;verticalAlign=middle;whiteSpace=wrap;rounded=0;fontSize=16;fontColor=#000000;" vertex="1" parent="4pYhQTcvPVw--77Q3iF8-1">
          <mxGeometry x="582.5" y="540" width="245" height="20" as="geometry"/>
        </mxCell>
        <mxCell id="myzO5Maf2v01JiZMeQdz-17" style="edgeStyle=orthogonalEdgeStyle;rounded=0;orthogonalLoop=1;jettySize=auto;html=1;exitX=1;exitY=0.5;exitDx=0;exitDy=0;fontSize=22;fontColor=#000000;" edge="1" parent="4pYhQTcvPVw--77Q3iF8-1" source="myzO5Maf2v01JiZMeQdz-14" target="myzO5Maf2v01JiZMeQdz-16">
          <mxGeometry relative="1" as="geometry"/>
        </mxCell>
        <mxCell id="myzO5Maf2v01JiZMeQdz-14" value="{ cod: &#39;200&#39;, cnt: 40, list: {}[] }" style="rounded=0;whiteSpace=wrap;html=1;fontSize=15;align=center;fillColor=#fff2cc;strokeColor=#d6b656;" vertex="1" parent="4pYhQTcvPVw--77Q3iF8-1">
          <mxGeometry x="587.5" y="610" width="235" height="40" as="geometry"/>
        </mxCell>
        <mxCell id="myzO5Maf2v01JiZMeQdz-19" style="edgeStyle=orthogonalEdgeStyle;rounded=0;orthogonalLoop=1;jettySize=auto;html=1;exitX=0.5;exitY=1;exitDx=0;exitDy=0;fontSize=22;fontColor=#000000;" edge="1" parent="4pYhQTcvPVw--77Q3iF8-1" source="myzO5Maf2v01JiZMeQdz-16" target="myzO5Maf2v01JiZMeQdz-18">
          <mxGeometry relative="1" as="geometry"/>
        </mxCell>
        <mxCell id="myzO5Maf2v01JiZMeQdz-16" value="pluck" style="rounded=0;whiteSpace=wrap;html=1;fontSize=22;fontColor=#000000;align=center;" vertex="1" parent="4pYhQTcvPVw--77Q3iF8-1">
          <mxGeometry x="860" y="600" width="130" height="60" as="geometry"/>
        </mxCell>
        <mxCell id="myzO5Maf2v01JiZMeQdz-21" style="edgeStyle=orthogonalEdgeStyle;rounded=0;orthogonalLoop=1;jettySize=auto;html=1;exitX=1;exitY=0.5;exitDx=0;exitDy=0;fontSize=22;fontColor=#000000;" edge="1" parent="4pYhQTcvPVw--77Q3iF8-1" source="myzO5Maf2v01JiZMeQdz-18" target="myzO5Maf2v01JiZMeQdz-20">
          <mxGeometry relative="1" as="geometry"/>
        </mxCell>
        <mxCell id="myzO5Maf2v01JiZMeQdz-18" value="{}[]" style="rounded=0;whiteSpace=wrap;html=1;fontSize=15;align=center;fillColor=#fff2cc;strokeColor=#d6b656;" vertex="1" parent="4pYhQTcvPVw--77Q3iF8-1">
          <mxGeometry x="587.5" y="700" width="235" height="40" as="geometry"/>
        </mxCell>
        <mxCell id="PGy9g07R7cubMzpr0zuh-2" style="edgeStyle=orthogonalEdgeStyle;rounded=0;orthogonalLoop=1;jettySize=auto;html=1;exitX=0.5;exitY=1;exitDx=0;exitDy=0;entryX=1;entryY=0.5;entryDx=0;entryDy=0;fontSize=22;fontColor=#000000;" edge="1" parent="4pYhQTcvPVw--77Q3iF8-1" source="myzO5Maf2v01JiZMeQdz-20" target="PGy9g07R7cubMzpr0zuh-0">
          <mxGeometry relative="1" as="geometry"/>
        </mxCell>
        <mxCell id="myzO5Maf2v01JiZMeQdz-20" value="mergeMap" style="rounded=0;whiteSpace=wrap;html=1;fontSize=22;fontColor=#000000;align=center;" vertex="1" parent="4pYhQTcvPVw--77Q3iF8-1">
          <mxGeometry x="860" y="690" width="130" height="60" as="geometry"/>
        </mxCell>
        <mxCell id="PGy9g07R7cubMzpr0zuh-7" style="edgeStyle=orthogonalEdgeStyle;rounded=0;orthogonalLoop=1;jettySize=auto;html=1;exitX=1;exitY=0.5;exitDx=0;exitDy=0;entryX=0;entryY=0.5;entryDx=0;entryDy=0;fontSize=22;fontColor=#000000;" edge="1" parent="4pYhQTcvPVw--77Q3iF8-1" source="myzO5Maf2v01JiZMeQdz-22" target="myzO5Maf2v01JiZMeQdz-24">
          <mxGeometry relative="1" as="geometry"/>
        </mxCell>
        <mxCell id="myzO5Maf2v01JiZMeQdz-22" value="{}" style="rounded=0;whiteSpace=wrap;html=1;fontSize=15;align=center;fillColor=#fff2cc;strokeColor=#d6b656;" vertex="1" parent="4pYhQTcvPVw--77Q3iF8-1">
          <mxGeometry x="587.5" y="940" width="235" height="40" as="geometry"/>
        </mxCell>
        <mxCell id="myzO5Maf2v01JiZMeQdz-27" style="edgeStyle=orthogonalEdgeStyle;rounded=0;orthogonalLoop=1;jettySize=auto;html=1;exitX=0.5;exitY=1;exitDx=0;exitDy=0;fontSize=22;fontColor=#000000;" edge="1" parent="4pYhQTcvPVw--77Q3iF8-1" source="myzO5Maf2v01JiZMeQdz-24" target="myzO5Maf2v01JiZMeQdz-26">
          <mxGeometry relative="1" as="geometry"/>
        </mxCell>
        <mxCell id="myzO5Maf2v01JiZMeQdz-24" value="filter" style="rounded=0;whiteSpace=wrap;html=1;fontSize=22;fontColor=#000000;align=center;" vertex="1" parent="4pYhQTcvPVw--77Q3iF8-1">
          <mxGeometry x="860" y="930" width="130" height="60" as="geometry"/>
        </mxCell>
        <mxCell id="myzO5Maf2v01JiZMeQdz-32" style="edgeStyle=orthogonalEdgeStyle;rounded=0;orthogonalLoop=1;jettySize=auto;html=1;exitX=1;exitY=0.5;exitDx=0;exitDy=0;fontSize=22;fontColor=#000000;" edge="1" parent="4pYhQTcvPVw--77Q3iF8-1" source="myzO5Maf2v01JiZMeQdz-26" target="myzO5Maf2v01JiZMeQdz-28">
          <mxGeometry relative="1" as="geometry"/>
        </mxCell>
        <mxCell id="myzO5Maf2v01JiZMeQdz-26" value="{}" style="rounded=0;whiteSpace=wrap;html=1;fontSize=15;align=center;fillColor=#fff2cc;strokeColor=#d6b656;" vertex="1" parent="4pYhQTcvPVw--77Q3iF8-1">
          <mxGeometry x="587.5" y="1030" width="235" height="40" as="geometry"/>
        </mxCell>
        <mxCell id="myzO5Maf2v01JiZMeQdz-30" style="edgeStyle=orthogonalEdgeStyle;rounded=0;orthogonalLoop=1;jettySize=auto;html=1;exitX=0.5;exitY=1;exitDx=0;exitDy=0;fontSize=22;fontColor=#000000;" edge="1" parent="4pYhQTcvPVw--77Q3iF8-1" source="myzO5Maf2v01JiZMeQdz-28" target="myzO5Maf2v01JiZMeQdz-29">
          <mxGeometry relative="1" as="geometry"/>
        </mxCell>
        <mxCell id="myzO5Maf2v01JiZMeQdz-28" value="map" style="rounded=0;whiteSpace=wrap;html=1;fontSize=22;fontColor=#000000;align=center;" vertex="1" parent="4pYhQTcvPVw--77Q3iF8-1">
          <mxGeometry x="860" y="1020" width="130" height="60" as="geometry"/>
        </mxCell>
        <mxCell id="myzO5Maf2v01JiZMeQdz-33" style="edgeStyle=orthogonalEdgeStyle;rounded=0;orthogonalLoop=1;jettySize=auto;html=1;exitX=1;exitY=0.5;exitDx=0;exitDy=0;fontSize=22;fontColor=#000000;" edge="1" parent="4pYhQTcvPVw--77Q3iF8-1" source="myzO5Maf2v01JiZMeQdz-29" target="myzO5Maf2v01JiZMeQdz-31">
          <mxGeometry relative="1" as="geometry"/>
        </mxCell>
        <mxCell id="myzO5Maf2v01JiZMeQdz-29" value="WeatherReport" style="rounded=0;whiteSpace=wrap;html=1;fontSize=15;align=center;fillColor=#fff2cc;strokeColor=#d6b656;" vertex="1" parent="4pYhQTcvPVw--77Q3iF8-1">
          <mxGeometry x="587.5" y="1120" width="235" height="40" as="geometry"/>
        </mxCell>
        <mxCell id="myzO5Maf2v01JiZMeQdz-35" style="edgeStyle=orthogonalEdgeStyle;rounded=0;orthogonalLoop=1;jettySize=auto;html=1;exitX=0.5;exitY=1;exitDx=0;exitDy=0;fontSize=22;fontColor=#000000;" edge="1" parent="4pYhQTcvPVw--77Q3iF8-1" source="myzO5Maf2v01JiZMeQdz-31" target="myzO5Maf2v01JiZMeQdz-34">
          <mxGeometry relative="1" as="geometry"/>
        </mxCell>
        <mxCell id="myzO5Maf2v01JiZMeQdz-31" value="toArray" style="rounded=0;whiteSpace=wrap;html=1;fontSize=22;fontColor=#000000;align=center;" vertex="1" parent="4pYhQTcvPVw--77Q3iF8-1">
          <mxGeometry x="860" y="1110" width="130" height="60" as="geometry"/>
        </mxCell>
        <mxCell id="myzO5Maf2v01JiZMeQdz-36" style="edgeStyle=orthogonalEdgeStyle;rounded=0;orthogonalLoop=1;jettySize=auto;html=1;exitX=0.5;exitY=1;exitDx=0;exitDy=0;fontSize=22;fontColor=#000000;" edge="1" parent="4pYhQTcvPVw--77Q3iF8-1" source="myzO5Maf2v01JiZMeQdz-34">
          <mxGeometry relative="1" as="geometry">
            <mxPoint x="705" y="1280" as="targetPoint"/>
          </mxGeometry>
        </mxCell>
        <mxCell id="myzO5Maf2v01JiZMeQdz-34" value="WeatherReport[]" style="rounded=0;whiteSpace=wrap;html=1;fontSize=15;align=center;fillColor=#fff2cc;strokeColor=#d6b656;" vertex="1" parent="4pYhQTcvPVw--77Q3iF8-1">
          <mxGeometry x="587.5" y="1210" width="235" height="40" as="geometry"/>
        </mxCell>
        <mxCell id="myzO5Maf2v01JiZMeQdz-37" value="observer" style="rounded=0;whiteSpace=wrap;html=1;fontSize=22;align=center;fillColor=#dae8fc;strokeColor=#6c8ebf;" vertex="1" parent="4pYhQTcvPVw--77Q3iF8-1">
          <mxGeometry x="640" y="1280" width="130" height="60" as="geometry"/>
        </mxCell>
        <mxCell id="PGy9g07R7cubMzpr0zuh-1" style="edgeStyle=orthogonalEdgeStyle;rounded=0;orthogonalLoop=1;jettySize=auto;html=1;exitX=0.5;exitY=1;exitDx=0;exitDy=0;fontSize=22;fontColor=#000000;" edge="1" parent="4pYhQTcvPVw--77Q3iF8-1" source="PGy9g07R7cubMzpr0zuh-0" target="myzO5Maf2v01JiZMeQdz-22">
          <mxGeometry relative="1" as="geometry"/>
        </mxCell>
        <mxCell id="PGy9g07R7cubMzpr0zuh-0" value="observable" style="rounded=0;whiteSpace=wrap;html=1;fontSize=22;fontColor=#000000;align=center;" vertex="1" parent="4pYhQTcvPVw--77Q3iF8-1">
          <mxGeometry x="640" y="770" width="130" height="60" as="geometry"/>
        </mxCell>
        <mxCell id="PGy9g07R7cubMzpr0zuh-3" value="{}" style="rounded=0;whiteSpace=wrap;html=1;fontSize=22;fontColor=#000000;align=center;" vertex="1" parent="4pYhQTcvPVw--77Q3iF8-1">
          <mxGeometry x="710" y="900" width="40" height="30" as="geometry"/>
        </mxCell>
        <mxCell id="PGy9g07R7cubMzpr0zuh-4" value="{}" style="rounded=0;whiteSpace=wrap;html=1;fontSize=22;fontColor=#000000;align=center;" vertex="1" parent="4pYhQTcvPVw--77Q3iF8-1">
          <mxGeometry x="710" y="870" width="40" height="30" as="geometry"/>
        </mxCell>
        <mxCell id="PGy9g07R7cubMzpr0zuh-5" value="{}" style="rounded=0;whiteSpace=wrap;html=1;fontSize=22;fontColor=#000000;align=center;" vertex="1" parent="4pYhQTcvPVw--77Q3iF8-1">
          <mxGeometry x="700" y="850" width="40" height="30" as="geometry"/>
        </mxCell>
        <mxCell id="PGy9g07R7cubMzpr0zuh-6" value="{}" style="rounded=0;whiteSpace=wrap;html=1;fontSize=22;fontColor=#000000;align=center;" vertex="1" parent="4pYhQTcvPVw--77Q3iF8-1">
          <mxGeometry x="700" y="820" width="40" height="30" as="geometry"/>
        </mxCell>
      </root>
    </mxGraphModel>
  </diagram>
  <diagram id="iQeONhCdPracHuddOrAJ" name="09 - mergemap">
    <mxGraphModel dx="747" dy="359" grid="1" gridSize="10" guides="1" tooltips="1" connect="1" arrows="1" fold="1" page="1" pageScale="1" pageWidth="1920" pageHeight="1200" math="0" shadow="0">
      <root>
        <mxCell id="HYHdnm4EACKPG7RqwCtW-0"/>
        <mxCell id="HYHdnm4EACKPG7RqwCtW-1" parent="HYHdnm4EACKPG7RqwCtW-0"/>
        <mxCell id="HYHdnm4EACKPG7RqwCtW-9" style="edgeStyle=orthogonalEdgeStyle;rounded=0;orthogonalLoop=1;jettySize=auto;html=1;exitX=0.5;exitY=1;exitDx=0;exitDy=0;fontSize=22;fontColor=#000000;" edge="1" parent="HYHdnm4EACKPG7RqwCtW-1" source="HYHdnm4EACKPG7RqwCtW-2" target="HYHdnm4EACKPG7RqwCtW-8">
          <mxGeometry relative="1" as="geometry"/>
        </mxCell>
        <mxCell id="HYHdnm4EACKPG7RqwCtW-2" value="" style="rounded=0;whiteSpace=wrap;html=1;fontSize=22;align=center;fillColor=#dae8fc;strokeColor=#6c8ebf;" vertex="1" parent="HYHdnm4EACKPG7RqwCtW-1">
          <mxGeometry x="660" y="135" width="180" height="75" as="geometry"/>
        </mxCell>
        <mxCell id="HYHdnm4EACKPG7RqwCtW-3" value="Observable" style="text;html=1;strokeColor=none;fillColor=none;align=center;verticalAlign=middle;whiteSpace=wrap;rounded=0;fontSize=22;fontColor=#000000;" vertex="1" parent="HYHdnm4EACKPG7RqwCtW-1">
          <mxGeometry x="730" y="140" width="40" height="20" as="geometry"/>
        </mxCell>
        <mxCell id="HYHdnm4EACKPG7RqwCtW-6" style="edgeStyle=orthogonalEdgeStyle;rounded=0;orthogonalLoop=1;jettySize=auto;html=1;exitX=1;exitY=0.5;exitDx=0;exitDy=0;fontSize=22;fontColor=#000000;" edge="1" parent="HYHdnm4EACKPG7RqwCtW-1" source="HYHdnm4EACKPG7RqwCtW-4" target="HYHdnm4EACKPG7RqwCtW-5">
          <mxGeometry relative="1" as="geometry"/>
        </mxCell>
        <mxCell id="HYHdnm4EACKPG7RqwCtW-4" value="10" style="rounded=0;whiteSpace=wrap;html=1;fontSize=22;fontColor=#000000;align=center;" vertex="1" parent="HYHdnm4EACKPG7RqwCtW-1">
          <mxGeometry x="705" y="170" width="30" height="30" as="geometry"/>
        </mxCell>
        <mxCell id="HYHdnm4EACKPG7RqwCtW-5" value="20" style="rounded=0;whiteSpace=wrap;html=1;fontSize=22;fontColor=#000000;align=center;" vertex="1" parent="HYHdnm4EACKPG7RqwCtW-1">
          <mxGeometry x="765" y="170" width="30" height="30" as="geometry"/>
        </mxCell>
        <mxCell id="HYHdnm4EACKPG7RqwCtW-16" style="edgeStyle=orthogonalEdgeStyle;rounded=0;orthogonalLoop=1;jettySize=auto;html=1;exitX=0.5;exitY=1;exitDx=0;exitDy=0;entryX=0.5;entryY=0;entryDx=0;entryDy=0;fontSize=22;fontColor=#000000;" edge="1" parent="HYHdnm4EACKPG7RqwCtW-1" source="HYHdnm4EACKPG7RqwCtW-8">
          <mxGeometry relative="1" as="geometry">
            <mxPoint x="665" y="350" as="targetPoint"/>
          </mxGeometry>
        </mxCell>
        <mxCell id="3YeyFmCJ31DIDa4ZYf68-2" style="edgeStyle=orthogonalEdgeStyle;rounded=0;orthogonalLoop=1;jettySize=auto;html=1;exitX=0.5;exitY=1;exitDx=0;exitDy=0;entryX=0.5;entryY=0;entryDx=0;entryDy=0;fontSize=22;fontColor=#000000;" edge="1" parent="HYHdnm4EACKPG7RqwCtW-1" source="HYHdnm4EACKPG7RqwCtW-8" target="3YeyFmCJ31DIDa4ZYf68-0">
          <mxGeometry relative="1" as="geometry"/>
        </mxCell>
        <mxCell id="HYHdnm4EACKPG7RqwCtW-8" value="switchMap" style="rounded=0;whiteSpace=wrap;html=1;fontSize=22;fontColor=#000000;align=center;" vertex="1" parent="HYHdnm4EACKPG7RqwCtW-1">
          <mxGeometry x="690" y="260" width="120" height="40" as="geometry"/>
        </mxCell>
        <mxCell id="HYHdnm4EACKPG7RqwCtW-19" style="edgeStyle=orthogonalEdgeStyle;rounded=0;orthogonalLoop=1;jettySize=auto;html=1;exitX=0.5;exitY=1;exitDx=0;exitDy=0;fontSize=22;fontColor=#000000;" edge="1" parent="HYHdnm4EACKPG7RqwCtW-1" target="HYHdnm4EACKPG7RqwCtW-18">
          <mxGeometry relative="1" as="geometry">
            <mxPoint x="665" y="415" as="sourcePoint"/>
          </mxGeometry>
        </mxCell>
        <mxCell id="HYHdnm4EACKPG7RqwCtW-21" style="edgeStyle=orthogonalEdgeStyle;rounded=0;orthogonalLoop=1;jettySize=auto;html=1;exitX=0.5;exitY=1;exitDx=0;exitDy=0;fontSize=22;fontColor=#000000;" edge="1" parent="HYHdnm4EACKPG7RqwCtW-1" source="HYHdnm4EACKPG7RqwCtW-18" target="HYHdnm4EACKPG7RqwCtW-20">
          <mxGeometry relative="1" as="geometry"/>
        </mxCell>
        <mxCell id="HYHdnm4EACKPG7RqwCtW-18" value="tap" style="rounded=0;whiteSpace=wrap;html=1;fontSize=22;fontColor=#000000;align=center;" vertex="1" parent="HYHdnm4EACKPG7RqwCtW-1">
          <mxGeometry x="690" y="460" width="120" height="40" as="geometry"/>
        </mxCell>
        <mxCell id="HYHdnm4EACKPG7RqwCtW-20" value="observer" style="rounded=0;whiteSpace=wrap;html=1;fontSize=22;align=center;fillColor=#d5e8d4;strokeColor=#82b366;" vertex="1" parent="HYHdnm4EACKPG7RqwCtW-1">
          <mxGeometry x="650" y="540" width="200" height="40" as="geometry"/>
        </mxCell>
        <mxCell id="__ot7MD1WAhugmIX12t1-1" value="20" style="rounded=0;whiteSpace=wrap;html=1;fontSize=22;fontColor=#000000;align=center;" vertex="1" parent="HYHdnm4EACKPG7RqwCtW-1">
          <mxGeometry x="750" y="220" width="30" height="30" as="geometry"/>
        </mxCell>
        <mxCell id="3YeyFmCJ31DIDa4ZYf68-3" style="edgeStyle=orthogonalEdgeStyle;rounded=0;orthogonalLoop=1;jettySize=auto;html=1;exitX=0.5;exitY=1;exitDx=0;exitDy=0;entryX=0.5;entryY=0;entryDx=0;entryDy=0;fontSize=22;fontColor=#000000;" edge="1" parent="HYHdnm4EACKPG7RqwCtW-1" source="3YeyFmCJ31DIDa4ZYf68-0" target="HYHdnm4EACKPG7RqwCtW-18">
          <mxGeometry relative="1" as="geometry"/>
        </mxCell>
        <mxCell id="3YeyFmCJ31DIDa4ZYf68-0" value="timer(1000)" style="rounded=0;whiteSpace=wrap;html=1;fontSize=22;align=center;fillColor=#dae8fc;strokeColor=#6c8ebf;" vertex="1" parent="HYHdnm4EACKPG7RqwCtW-1">
          <mxGeometry x="780" y="350" width="140" height="65" as="geometry"/>
        </mxCell>
        <mxCell id="3YeyFmCJ31DIDa4ZYf68-1" value="Observable" style="text;html=1;strokeColor=none;fillColor=none;align=center;verticalAlign=middle;whiteSpace=wrap;rounded=0;fontSize=22;fontColor=#000000;" vertex="1" parent="HYHdnm4EACKPG7RqwCtW-1">
          <mxGeometry x="830" y="354" width="40" height="20" as="geometry"/>
        </mxCell>
      </root>
    </mxGraphModel>
  </diagram>
  <diagram name="10 - network" id="29lmN3xsdP32ACqTFSaA">
    <mxGraphModel dx="747" dy="359" grid="1" gridSize="10" guides="1" tooltips="1" connect="1" arrows="1" fold="1" page="1" pageScale="1" pageWidth="1920" pageHeight="1200" math="0" shadow="0">
      <root>
        <mxCell id="mLgiQsKm__8wY9LeJghl-0"/>
        <mxCell id="mLgiQsKm__8wY9LeJghl-1" parent="mLgiQsKm__8wY9LeJghl-0"/>
        <mxCell id="mLgiQsKm__8wY9LeJghl-26" style="edgeStyle=orthogonalEdgeStyle;rounded=0;orthogonalLoop=1;jettySize=auto;html=1;exitX=0.5;exitY=1;exitDx=0;exitDy=0;fontSize=22;fontColor=#000000;" edge="1" parent="mLgiQsKm__8wY9LeJghl-1" source="mLgiQsKm__8wY9LeJghl-3" target="mLgiQsKm__8wY9LeJghl-10">
          <mxGeometry relative="1" as="geometry"/>
        </mxCell>
        <mxCell id="mLgiQsKm__8wY9LeJghl-3" value="" style="rounded=0;whiteSpace=wrap;html=1;fontSize=22;align=center;fillColor=#dae8fc;strokeColor=#6c8ebf;" vertex="1" parent="mLgiQsKm__8wY9LeJghl-1">
          <mxGeometry x="615" y="135" width="330" height="75" as="geometry"/>
        </mxCell>
        <mxCell id="mLgiQsKm__8wY9LeJghl-4" value="Observable" style="text;html=1;strokeColor=none;fillColor=none;align=center;verticalAlign=middle;whiteSpace=wrap;rounded=0;fontSize=22;fontColor=#000000;" vertex="1" parent="mLgiQsKm__8wY9LeJghl-1">
          <mxGeometry x="760" y="135" width="40" height="20" as="geometry"/>
        </mxCell>
        <mxCell id="mLgiQsKm__8wY9LeJghl-5" style="edgeStyle=orthogonalEdgeStyle;rounded=0;orthogonalLoop=1;jettySize=auto;html=1;exitX=1;exitY=0.5;exitDx=0;exitDy=0;fontSize=22;fontColor=#000000;" edge="1" parent="mLgiQsKm__8wY9LeJghl-1" source="mLgiQsKm__8wY9LeJghl-6" target="mLgiQsKm__8wY9LeJghl-7">
          <mxGeometry relative="1" as="geometry"/>
        </mxCell>
        <mxCell id="mLgiQsKm__8wY9LeJghl-6" value="w" style="rounded=0;whiteSpace=wrap;html=1;fontSize=22;fontColor=#000000;align=center;" vertex="1" parent="mLgiQsKm__8wY9LeJghl-1">
          <mxGeometry x="660" y="170" width="55" height="30" as="geometry"/>
        </mxCell>
        <mxCell id="mLgiQsKm__8wY9LeJghl-25" style="edgeStyle=orthogonalEdgeStyle;rounded=0;orthogonalLoop=1;jettySize=auto;html=1;exitX=1;exitY=0.5;exitDx=0;exitDy=0;fontSize=22;fontColor=#000000;" edge="1" parent="mLgiQsKm__8wY9LeJghl-1" source="mLgiQsKm__8wY9LeJghl-7" target="mLgiQsKm__8wY9LeJghl-24">
          <mxGeometry relative="1" as="geometry"/>
        </mxCell>
        <mxCell id="mLgiQsKm__8wY9LeJghl-7" value="wh" style="rounded=0;whiteSpace=wrap;html=1;fontSize=22;fontColor=#000000;align=center;" vertex="1" parent="mLgiQsKm__8wY9LeJghl-1">
          <mxGeometry x="745" y="170" width="55" height="30" as="geometry"/>
        </mxCell>
        <mxCell id="egALopUJ620viV2k_oFL-6" style="edgeStyle=orthogonalEdgeStyle;rounded=0;orthogonalLoop=1;jettySize=auto;html=1;exitX=0.5;exitY=1;exitDx=0;exitDy=0;entryX=0.5;entryY=0;entryDx=0;entryDy=0;fontSize=22;fontColor=#000000;" edge="1" parent="mLgiQsKm__8wY9LeJghl-1" source="mLgiQsKm__8wY9LeJghl-10" target="egALopUJ620viV2k_oFL-5">
          <mxGeometry relative="1" as="geometry"/>
        </mxCell>
        <mxCell id="mLgiQsKm__8wY9LeJghl-10" value="switchMap" style="rounded=0;whiteSpace=wrap;html=1;fontSize=22;fontColor=#000000;align=center;" vertex="1" parent="mLgiQsKm__8wY9LeJghl-1">
          <mxGeometry x="720" y="260" width="120" height="40" as="geometry"/>
        </mxCell>
        <mxCell id="mLgiQsKm__8wY9LeJghl-14" value="observer" style="rounded=0;whiteSpace=wrap;html=1;fontSize=22;align=center;fillColor=#d5e8d4;strokeColor=#82b366;" vertex="1" parent="mLgiQsKm__8wY9LeJghl-1">
          <mxGeometry x="680" y="540" width="200" height="40" as="geometry"/>
        </mxCell>
        <mxCell id="mLgiQsKm__8wY9LeJghl-24" value="why" style="rounded=0;whiteSpace=wrap;html=1;fontSize=22;fontColor=#000000;align=center;" vertex="1" parent="mLgiQsKm__8wY9LeJghl-1">
          <mxGeometry x="830" y="170" width="100" height="30" as="geometry"/>
        </mxCell>
        <mxCell id="mLgiQsKm__8wY9LeJghl-28" value="&lt;i&gt;autocomplete results&lt;/i&gt;" style="rounded=0;whiteSpace=wrap;html=1;fontSize=22;align=center;fillColor=#f5f5f5;strokeColor=#666666;fontColor=#333333;" vertex="1" parent="mLgiQsKm__8wY9LeJghl-1">
          <mxGeometry x="780" y="490" width="240" height="30" as="geometry"/>
        </mxCell>
        <mxCell id="egALopUJ620viV2k_oFL-2" value="why" style="rounded=0;whiteSpace=wrap;html=1;fontSize=22;fontColor=#000000;align=center;" vertex="1" parent="mLgiQsKm__8wY9LeJghl-1">
          <mxGeometry x="780" y="220" width="55" height="30" as="geometry"/>
        </mxCell>
        <mxCell id="egALopUJ620viV2k_oFL-7" style="edgeStyle=orthogonalEdgeStyle;rounded=0;orthogonalLoop=1;jettySize=auto;html=1;exitX=0.5;exitY=1;exitDx=0;exitDy=0;fontSize=22;fontColor=#000000;" edge="1" parent="mLgiQsKm__8wY9LeJghl-1" source="egALopUJ620viV2k_oFL-5" target="mLgiQsKm__8wY9LeJghl-14">
          <mxGeometry relative="1" as="geometry"/>
        </mxCell>
        <mxCell id="egALopUJ620viV2k_oFL-5" value="Observable for network request" style="rounded=0;whiteSpace=wrap;html=1;fontSize=22;align=center;fillColor=#dae8fc;strokeColor=#6c8ebf;" vertex="1" parent="mLgiQsKm__8wY9LeJghl-1">
          <mxGeometry x="910" y="360" width="140" height="80" as="geometry"/>
        </mxCell>
      </root>
    </mxGraphModel>
  </diagram>
  <diagram id="ZB9HA8uQYaMuga2h4KPb" name="11 - pipes">
    <mxGraphModel dx="623" dy="299" grid="1" gridSize="10" guides="1" tooltips="1" connect="1" arrows="1" fold="1" page="1" pageScale="1" pageWidth="1920" pageHeight="1200" math="0" shadow="0">
      <root>
        <mxCell id="HzhNeCAwSYBL6Nx-qFvW-0"/>
        <mxCell id="HzhNeCAwSYBL6Nx-qFvW-1" parent="HzhNeCAwSYBL6Nx-qFvW-0"/>
        <mxCell id="0BNjCZMaYBSUuIM-Vq-U-0" value="Pipes" style="text;html=1;strokeColor=none;fillColor=none;align=center;verticalAlign=middle;whiteSpace=wrap;rounded=0;fontSize=27;fontColor=#000000;fontStyle=1" vertex="1" parent="HzhNeCAwSYBL6Nx-qFvW-1">
          <mxGeometry x="427.5" y="230" width="500" height="20" as="geometry"/>
        </mxCell>
        <mxCell id="0BNjCZMaYBSUuIM-Vq-U-1" value="Functions that we can call from a template to format data" style="rounded=0;whiteSpace=wrap;html=1;fontSize=14;fontColor=#000000;align=center;" vertex="1" parent="HzhNeCAwSYBL6Nx-qFvW-1">
          <mxGeometry x="427.5" y="264" width="500" height="40" as="geometry"/>
        </mxCell>
        <mxCell id="0BNjCZMaYBSUuIM-Vq-U-2" value="We can build our own pipes &lt;i&gt;super&lt;/i&gt;&amp;nbsp;easily" style="rounded=0;whiteSpace=wrap;html=1;fontSize=14;fontColor=#000000;align=center;" vertex="1" parent="HzhNeCAwSYBL6Nx-qFvW-1">
          <mxGeometry x="427.5" y="400" width="500" height="40" as="geometry"/>
        </mxCell>
        <mxCell id="0BNjCZMaYBSUuIM-Vq-U-3" value="Pipes get created in modules.&amp;nbsp; They can only be used in that module unless we add that pipe to the modules &#39;export&#39; statement" style="rounded=0;whiteSpace=wrap;html=1;fontSize=14;fontColor=#000000;align=center;" vertex="1" parent="HzhNeCAwSYBL6Nx-qFvW-1">
          <mxGeometry x="427.5" y="445" width="500" height="40" as="geometry"/>
        </mxCell>
        <mxCell id="0BNjCZMaYBSUuIM-Vq-U-5" value="Similar to creating a method on a class and calling it from the class&#39;s template" style="rounded=0;whiteSpace=wrap;html=1;fontSize=14;fontColor=#000000;align=center;" vertex="1" parent="HzhNeCAwSYBL6Nx-qFvW-1">
          <mxGeometry x="427.5" y="309" width="500" height="40" as="geometry"/>
        </mxCell>
        <mxCell id="0BNjCZMaYBSUuIM-Vq-U-6" value="Several pipes are built into Angular (angular.io/api?type=pipe)" style="rounded=0;whiteSpace=wrap;html=1;fontSize=14;fontColor=#000000;align=center;" vertex="1" parent="HzhNeCAwSYBL6Nx-qFvW-1">
          <mxGeometry x="427.5" y="354" width="500" height="40" as="geometry"/>
        </mxCell>
      </root>
    </mxGraphModel>
  </diagram>
  <diagram id="FX1YHhxhryRUbSwigD8F" name="12 - async">
    <mxGraphModel dx="747" dy="359" grid="1" gridSize="10" guides="1" tooltips="1" connect="1" arrows="1" fold="1" page="1" pageScale="1" pageWidth="1920" pageHeight="1200" math="0" shadow="0">
      <root>
        <mxCell id="fDP0GGWiF9JrZ53E54jl-0"/>
        <mxCell id="fDP0GGWiF9JrZ53E54jl-1" parent="fDP0GGWiF9JrZ53E54jl-0"/>
        <mxCell id="fDP0GGWiF9JrZ53E54jl-6" style="edgeStyle=orthogonalEdgeStyle;rounded=0;orthogonalLoop=1;jettySize=auto;html=1;exitX=0.5;exitY=1;exitDx=0;exitDy=0;fontSize=16;fontColor=#000000;" edge="1" parent="fDP0GGWiF9JrZ53E54jl-1" source="fDP0GGWiF9JrZ53E54jl-3">
          <mxGeometry relative="1" as="geometry">
            <mxPoint x="710" y="250" as="targetPoint"/>
          </mxGeometry>
        </mxCell>
        <mxCell id="fDP0GGWiF9JrZ53E54jl-3" value="" style="rounded=0;whiteSpace=wrap;html=1;fontSize=22;align=center;fillColor=#dae8fc;strokeColor=#6c8ebf;" vertex="1" parent="fDP0GGWiF9JrZ53E54jl-1">
          <mxGeometry x="570" y="130" width="280" height="80" as="geometry"/>
        </mxCell>
        <mxCell id="fDP0GGWiF9JrZ53E54jl-4" value="&lt;b&gt;Observable&lt;/b&gt;" style="text;html=1;strokeColor=none;fillColor=none;align=center;verticalAlign=middle;whiteSpace=wrap;rounded=0;fontSize=22;fontColor=#000000;" vertex="1" parent="fDP0GGWiF9JrZ53E54jl-1">
          <mxGeometry x="690" y="140" width="40" height="20" as="geometry"/>
        </mxCell>
        <mxCell id="fDP0GGWiF9JrZ53E54jl-5" value="{ dateString, temp}[]" style="text;html=1;strokeColor=none;fillColor=none;align=center;verticalAlign=middle;whiteSpace=wrap;rounded=0;fontSize=16;fontColor=#000000;" vertex="1" parent="fDP0GGWiF9JrZ53E54jl-1">
          <mxGeometry x="600" y="180" width="220" height="20" as="geometry"/>
        </mxCell>
        <mxCell id="fDP0GGWiF9JrZ53E54jl-7" value="{ dateString, temp }[]" style="rounded=0;whiteSpace=wrap;html=1;fontSize=16;fontColor=#000000;align=center;" vertex="1" parent="fDP0GGWiF9JrZ53E54jl-1">
          <mxGeometry x="610" y="250" width="200" height="60" as="geometry"/>
        </mxCell>
        <mxCell id="fDP0GGWiF9JrZ53E54jl-8" value="" style="rounded=0;whiteSpace=wrap;html=1;fontSize=16;align=center;fillColor=#e1d5e7;strokeColor=#9673a6;" vertex="1" parent="fDP0GGWiF9JrZ53E54jl-1">
          <mxGeometry x="300" y="200" width="220" height="130" as="geometry"/>
        </mxCell>
        <mxCell id="fDP0GGWiF9JrZ53E54jl-9" value="&lt;b&gt;Component&lt;/b&gt;" style="text;html=1;strokeColor=none;fillColor=none;align=center;verticalAlign=middle;whiteSpace=wrap;rounded=0;fontSize=22;fontColor=#000000;" vertex="1" parent="fDP0GGWiF9JrZ53E54jl-1">
          <mxGeometry x="390" y="210" width="40" height="20" as="geometry"/>
        </mxCell>
        <mxCell id="fDP0GGWiF9JrZ53E54jl-11" style="edgeStyle=orthogonalEdgeStyle;rounded=0;orthogonalLoop=1;jettySize=auto;html=1;exitX=1;exitY=0.5;exitDx=0;exitDy=0;fontSize=16;fontColor=#000000;" edge="1" parent="fDP0GGWiF9JrZ53E54jl-1" source="fDP0GGWiF9JrZ53E54jl-10" target="fDP0GGWiF9JrZ53E54jl-7">
          <mxGeometry relative="1" as="geometry"/>
        </mxCell>
        <mxCell id="fDP0GGWiF9JrZ53E54jl-15" style="edgeStyle=orthogonalEdgeStyle;rounded=0;orthogonalLoop=1;jettySize=auto;html=1;exitX=0.5;exitY=1;exitDx=0;exitDy=0;entryX=0.5;entryY=0;entryDx=0;entryDy=0;fontSize=11;fontColor=#000000;" edge="1" parent="fDP0GGWiF9JrZ53E54jl-1" source="fDP0GGWiF9JrZ53E54jl-10" target="fDP0GGWiF9JrZ53E54jl-14">
          <mxGeometry relative="1" as="geometry"/>
        </mxCell>
        <mxCell id="fDP0GGWiF9JrZ53E54jl-10" value="this.forecastData" style="rounded=0;whiteSpace=wrap;html=1;fontSize=16;fontColor=#000000;align=center;" vertex="1" parent="fDP0GGWiF9JrZ53E54jl-1">
          <mxGeometry x="310" y="250" width="200" height="60" as="geometry"/>
        </mxCell>
        <mxCell id="fDP0GGWiF9JrZ53E54jl-12" value="" style="rounded=0;whiteSpace=wrap;html=1;fontSize=16;align=center;fillColor=#d5e8d4;strokeColor=#82b366;" vertex="1" parent="fDP0GGWiF9JrZ53E54jl-1">
          <mxGeometry x="300" y="380" width="220" height="80" as="geometry"/>
        </mxCell>
        <mxCell id="fDP0GGWiF9JrZ53E54jl-13" value="&lt;b&gt;Template&lt;/b&gt;" style="text;html=1;strokeColor=none;fillColor=none;align=center;verticalAlign=middle;whiteSpace=wrap;rounded=0;fontSize=22;fontColor=#000000;" vertex="1" parent="fDP0GGWiF9JrZ53E54jl-1">
          <mxGeometry x="390" y="430" width="40" height="20" as="geometry"/>
        </mxCell>
        <mxCell id="fDP0GGWiF9JrZ53E54jl-14" value="*ngFor=&quot;let data of forecastData&quot;" style="rounded=0;whiteSpace=wrap;html=1;fontSize=11;fontColor=#000000;align=center;" vertex="1" parent="fDP0GGWiF9JrZ53E54jl-1">
          <mxGeometry x="310" y="390" width="200" height="30" as="geometry"/>
        </mxCell>
      </root>
    </mxGraphModel>
  </diagram>
  <diagram name="13 - async" id="S-S5jIyIMUPMUez3eb4j">
    <mxGraphModel dx="747" dy="359" grid="1" gridSize="10" guides="1" tooltips="1" connect="1" arrows="1" fold="1" page="1" pageScale="1" pageWidth="1920" pageHeight="1200" math="0" shadow="0">
      <root>
        <mxCell id="FI4k01m5t6sKGxZCuJwg-0"/>
        <mxCell id="FI4k01m5t6sKGxZCuJwg-1" parent="FI4k01m5t6sKGxZCuJwg-0"/>
        <mxCell id="FI4k01m5t6sKGxZCuJwg-2" style="edgeStyle=orthogonalEdgeStyle;rounded=0;orthogonalLoop=1;jettySize=auto;html=1;exitX=0.5;exitY=1;exitDx=0;exitDy=0;fontSize=16;fontColor=#000000;" edge="1" parent="FI4k01m5t6sKGxZCuJwg-1" source="FI4k01m5t6sKGxZCuJwg-3">
          <mxGeometry relative="1" as="geometry">
            <mxPoint x="710" y="250" as="targetPoint"/>
          </mxGeometry>
        </mxCell>
        <mxCell id="FI4k01m5t6sKGxZCuJwg-18" style="edgeStyle=orthogonalEdgeStyle;rounded=0;orthogonalLoop=1;jettySize=auto;html=1;exitX=0.5;exitY=1;exitDx=0;exitDy=0;fontSize=11;fontColor=#000000;" edge="1" parent="FI4k01m5t6sKGxZCuJwg-1" source="FI4k01m5t6sKGxZCuJwg-3" target="FI4k01m5t6sKGxZCuJwg-6">
          <mxGeometry relative="1" as="geometry"/>
        </mxCell>
        <mxCell id="FI4k01m5t6sKGxZCuJwg-3" value="" style="rounded=0;whiteSpace=wrap;html=1;fontSize=22;align=center;fillColor=#dae8fc;strokeColor=#6c8ebf;" vertex="1" parent="FI4k01m5t6sKGxZCuJwg-1">
          <mxGeometry x="570" y="170" width="280" height="80" as="geometry"/>
        </mxCell>
        <mxCell id="FI4k01m5t6sKGxZCuJwg-4" value="&lt;b&gt;Observable&lt;/b&gt;" style="text;html=1;strokeColor=none;fillColor=none;align=center;verticalAlign=middle;whiteSpace=wrap;rounded=0;fontSize=22;fontColor=#000000;" vertex="1" parent="FI4k01m5t6sKGxZCuJwg-1">
          <mxGeometry x="690" y="180" width="40" height="20" as="geometry"/>
        </mxCell>
        <mxCell id="FI4k01m5t6sKGxZCuJwg-5" value="{ dateString, temp}[]" style="text;html=1;strokeColor=none;fillColor=none;align=center;verticalAlign=middle;whiteSpace=wrap;rounded=0;fontSize=16;fontColor=#000000;" vertex="1" parent="FI4k01m5t6sKGxZCuJwg-1">
          <mxGeometry x="600" y="220" width="220" height="20" as="geometry"/>
        </mxCell>
        <mxCell id="FI4k01m5t6sKGxZCuJwg-19" style="edgeStyle=orthogonalEdgeStyle;rounded=0;orthogonalLoop=1;jettySize=auto;html=1;exitX=0;exitY=0.5;exitDx=0;exitDy=0;entryX=1;entryY=0.5;entryDx=0;entryDy=0;fontSize=11;fontColor=#000000;" edge="1" parent="FI4k01m5t6sKGxZCuJwg-1" source="FI4k01m5t6sKGxZCuJwg-6" target="FI4k01m5t6sKGxZCuJwg-12">
          <mxGeometry relative="1" as="geometry"/>
        </mxCell>
        <mxCell id="FI4k01m5t6sKGxZCuJwg-6" value="{ dateString, temp }[]" style="rounded=0;whiteSpace=wrap;html=1;fontSize=16;fontColor=#000000;align=center;" vertex="1" parent="FI4k01m5t6sKGxZCuJwg-1">
          <mxGeometry x="610" y="280" width="200" height="60" as="geometry"/>
        </mxCell>
        <mxCell id="FI4k01m5t6sKGxZCuJwg-7" value="" style="rounded=0;whiteSpace=wrap;html=1;fontSize=16;align=center;fillColor=#e1d5e7;strokeColor=#9673a6;" vertex="1" parent="FI4k01m5t6sKGxZCuJwg-1">
          <mxGeometry x="300" y="130" width="220" height="130" as="geometry"/>
        </mxCell>
        <mxCell id="FI4k01m5t6sKGxZCuJwg-8" value="&lt;b&gt;Component&lt;/b&gt;" style="text;html=1;strokeColor=none;fillColor=none;align=center;verticalAlign=middle;whiteSpace=wrap;rounded=0;fontSize=22;fontColor=#000000;" vertex="1" parent="FI4k01m5t6sKGxZCuJwg-1">
          <mxGeometry x="390" y="140" width="40" height="20" as="geometry"/>
        </mxCell>
        <mxCell id="FI4k01m5t6sKGxZCuJwg-15" style="edgeStyle=orthogonalEdgeStyle;rounded=0;orthogonalLoop=1;jettySize=auto;html=1;exitX=1;exitY=0.5;exitDx=0;exitDy=0;fontSize=11;fontColor=#000000;" edge="1" parent="FI4k01m5t6sKGxZCuJwg-1" source="FI4k01m5t6sKGxZCuJwg-11" target="FI4k01m5t6sKGxZCuJwg-3">
          <mxGeometry relative="1" as="geometry"/>
        </mxCell>
        <mxCell id="FI4k01m5t6sKGxZCuJwg-17" style="edgeStyle=orthogonalEdgeStyle;rounded=0;orthogonalLoop=1;jettySize=auto;html=1;exitX=0.5;exitY=1;exitDx=0;exitDy=0;entryX=0.5;entryY=0;entryDx=0;entryDy=0;fontSize=11;fontColor=#000000;" edge="1" parent="FI4k01m5t6sKGxZCuJwg-1" source="FI4k01m5t6sKGxZCuJwg-11" target="FI4k01m5t6sKGxZCuJwg-12">
          <mxGeometry relative="1" as="geometry"/>
        </mxCell>
        <mxCell id="FI4k01m5t6sKGxZCuJwg-11" value="this.forecast$" style="rounded=0;whiteSpace=wrap;html=1;fontSize=16;fontColor=#000000;align=center;" vertex="1" parent="FI4k01m5t6sKGxZCuJwg-1">
          <mxGeometry x="310" y="180" width="200" height="60" as="geometry"/>
        </mxCell>
        <mxCell id="FI4k01m5t6sKGxZCuJwg-12" value="" style="rounded=0;whiteSpace=wrap;html=1;fontSize=16;align=center;fillColor=#d5e8d4;strokeColor=#82b366;" vertex="1" parent="FI4k01m5t6sKGxZCuJwg-1">
          <mxGeometry x="300" y="320" width="220" height="80" as="geometry"/>
        </mxCell>
        <mxCell id="FI4k01m5t6sKGxZCuJwg-13" value="&lt;b&gt;Template&lt;/b&gt;" style="text;html=1;strokeColor=none;fillColor=none;align=center;verticalAlign=middle;whiteSpace=wrap;rounded=0;fontSize=22;fontColor=#000000;" vertex="1" parent="FI4k01m5t6sKGxZCuJwg-1">
          <mxGeometry x="390" y="370" width="40" height="20" as="geometry"/>
        </mxCell>
        <mxCell id="FI4k01m5t6sKGxZCuJwg-14" value="*ngFor=&quot;let data of forecastData | async&quot;" style="rounded=0;whiteSpace=wrap;html=1;fontSize=11;fontColor=#000000;align=center;" vertex="1" parent="FI4k01m5t6sKGxZCuJwg-1">
          <mxGeometry x="305" y="330" width="210" height="30" as="geometry"/>
        </mxCell>
      </root>
    </mxGraphModel>
  </diagram>
</mxfile>
